%TF.GenerationSoftware,KiCad,Pcbnew,(5.1.10)-1*%
%TF.CreationDate,2021-12-07T14:34:22+03:00*%
%TF.ProjectId,4-20mA_converter,342d3230-6d41-45f6-936f-6e7665727465,rev?*%
%TF.SameCoordinates,Original*%
%TF.FileFunction,Copper,L1,Top*%
%TF.FilePolarity,Positive*%
%FSLAX46Y46*%
G04 Gerber Fmt 4.6, Leading zero omitted, Abs format (unit mm)*
G04 Created by KiCad (PCBNEW (5.1.10)-1) date 2021-12-07 14:34:22*
%MOMM*%
%LPD*%
G01*
G04 APERTURE LIST*
%TA.AperFunction,SMDPad,CuDef*%
%ADD10R,2.510000X1.000000*%
%TD*%
%TA.AperFunction,SMDPad,CuDef*%
%ADD11R,0.850000X2.350000*%
%TD*%
%TA.AperFunction,SMDPad,CuDef*%
%ADD12R,1.000000X2.510000*%
%TD*%
%TA.AperFunction,ComponentPad*%
%ADD13R,1.700000X1.700000*%
%TD*%
%TA.AperFunction,ComponentPad*%
%ADD14O,1.700000X1.700000*%
%TD*%
%TA.AperFunction,ComponentPad*%
%ADD15O,1.905000X2.000000*%
%TD*%
%TA.AperFunction,ComponentPad*%
%ADD16R,1.905000X2.000000*%
%TD*%
%TA.AperFunction,SMDPad,CuDef*%
%ADD17R,2.200000X1.200000*%
%TD*%
%TA.AperFunction,SMDPad,CuDef*%
%ADD18R,6.400000X5.800000*%
%TD*%
%TA.AperFunction,SMDPad,CuDef*%
%ADD19R,0.900000X0.800000*%
%TD*%
%TA.AperFunction,ViaPad*%
%ADD20C,0.800000*%
%TD*%
%TA.AperFunction,Conductor*%
%ADD21C,1.000000*%
%TD*%
%TA.AperFunction,Conductor*%
%ADD22C,0.500000*%
%TD*%
%TA.AperFunction,Conductor*%
%ADD23C,0.750000*%
%TD*%
%TA.AperFunction,Conductor*%
%ADD24C,0.254000*%
%TD*%
%TA.AperFunction,Conductor*%
%ADD25C,0.100000*%
%TD*%
G04 APERTURE END LIST*
D10*
%TO.P,J4,3*%
%TO.N,IN_1+*%
X19820000Y-30480000D03*
%TO.P,J4,1*%
X19820000Y-25400000D03*
%TO.P,J4,4*%
X16510000Y-33020000D03*
%TO.P,J4,2*%
X16510000Y-27940000D03*
%TD*%
D11*
%TO.P,J3,4*%
%TO.N,Net-(D3-Pad2)*%
X59150000Y-44005000D03*
%TO.P,J3,2*%
X55150000Y-44005000D03*
%TO.P,J3,3*%
X57150000Y-46355000D03*
%TO.P,J3,1*%
X53150000Y-46355000D03*
%TD*%
D12*
%TO.P,J2,3*%
%TO.N,GND*%
X21590000Y-43426000D03*
%TO.P,J2,1*%
X16510000Y-43426000D03*
%TO.P,J2,4*%
X24130000Y-46736000D03*
%TO.P,J2,2*%
X19050000Y-46736000D03*
%TD*%
%TO.P,J1,3*%
%TO.N,VIN*%
X25400000Y-15994000D03*
%TO.P,J1,1*%
X20320000Y-15994000D03*
%TO.P,J1,4*%
X27940000Y-19304000D03*
%TO.P,J1,2*%
X22860000Y-19304000D03*
%TD*%
D13*
%TO.P,JP1,1*%
%TO.N,Net-(JP1-Pad1)*%
X39395400Y-40640000D03*
D14*
%TO.P,JP1,2*%
%TO.N,Net-(JP1-Pad2)*%
X41935400Y-40640000D03*
%TO.P,JP1,3*%
%TO.N,Net-(JP1-Pad3)*%
X44475400Y-40640000D03*
%TD*%
%TO.P,D5,2*%
%TO.N,VIN*%
%TA.AperFunction,SMDPad,CuDef*%
G36*
G01*
X31561200Y-16093278D02*
X31561200Y-17343282D01*
G75*
G02*
X31311202Y-17593280I-249998J0D01*
G01*
X30686198Y-17593280D01*
G75*
G02*
X30436200Y-17343282I0J249998D01*
G01*
X30436200Y-16093278D01*
G75*
G02*
X30686198Y-15843280I249998J0D01*
G01*
X31311202Y-15843280D01*
G75*
G02*
X31561200Y-16093278I0J-249998D01*
G01*
G37*
%TD.AperFunction*%
%TO.P,D5,1*%
%TO.N,+24V*%
%TA.AperFunction,SMDPad,CuDef*%
G36*
G01*
X34486200Y-16093278D02*
X34486200Y-17343282D01*
G75*
G02*
X34236202Y-17593280I-249998J0D01*
G01*
X33611198Y-17593280D01*
G75*
G02*
X33361200Y-17343282I0J249998D01*
G01*
X33361200Y-16093278D01*
G75*
G02*
X33611198Y-15843280I249998J0D01*
G01*
X34236202Y-15843280D01*
G75*
G02*
X34486200Y-16093278I0J-249998D01*
G01*
G37*
%TD.AperFunction*%
%TD*%
D15*
%TO.P,U2,3*%
%TO.N,+15V*%
X52476400Y-17475200D03*
%TO.P,U2,2*%
%TO.N,GND*%
X49936400Y-17475200D03*
D16*
%TO.P,U2,1*%
%TO.N,+24V*%
X47396400Y-17475200D03*
%TD*%
%TO.P,U1,1*%
%TO.N,Net-(R3-Pad1)*%
%TA.AperFunction,SMDPad,CuDef*%
G36*
G01*
X34228360Y-23959960D02*
X34228360Y-23659960D01*
G75*
G02*
X34378360Y-23509960I150000J0D01*
G01*
X36028360Y-23509960D01*
G75*
G02*
X36178360Y-23659960I0J-150000D01*
G01*
X36178360Y-23959960D01*
G75*
G02*
X36028360Y-24109960I-150000J0D01*
G01*
X34378360Y-24109960D01*
G75*
G02*
X34228360Y-23959960I0J150000D01*
G01*
G37*
%TD.AperFunction*%
%TO.P,U1,2*%
%TO.N,Net-(JP1-Pad2)*%
%TA.AperFunction,SMDPad,CuDef*%
G36*
G01*
X34228360Y-25229960D02*
X34228360Y-24929960D01*
G75*
G02*
X34378360Y-24779960I150000J0D01*
G01*
X36028360Y-24779960D01*
G75*
G02*
X36178360Y-24929960I0J-150000D01*
G01*
X36178360Y-25229960D01*
G75*
G02*
X36028360Y-25379960I-150000J0D01*
G01*
X34378360Y-25379960D01*
G75*
G02*
X34228360Y-25229960I0J150000D01*
G01*
G37*
%TD.AperFunction*%
%TO.P,U1,3*%
%TO.N,Net-(D1-Pad1)*%
%TA.AperFunction,SMDPad,CuDef*%
G36*
G01*
X34228360Y-26499960D02*
X34228360Y-26199960D01*
G75*
G02*
X34378360Y-26049960I150000J0D01*
G01*
X36028360Y-26049960D01*
G75*
G02*
X36178360Y-26199960I0J-150000D01*
G01*
X36178360Y-26499960D01*
G75*
G02*
X36028360Y-26649960I-150000J0D01*
G01*
X34378360Y-26649960D01*
G75*
G02*
X34228360Y-26499960I0J150000D01*
G01*
G37*
%TD.AperFunction*%
%TO.P,U1,4*%
%TO.N,GND*%
%TA.AperFunction,SMDPad,CuDef*%
G36*
G01*
X34228360Y-27769960D02*
X34228360Y-27469960D01*
G75*
G02*
X34378360Y-27319960I150000J0D01*
G01*
X36028360Y-27319960D01*
G75*
G02*
X36178360Y-27469960I0J-150000D01*
G01*
X36178360Y-27769960D01*
G75*
G02*
X36028360Y-27919960I-150000J0D01*
G01*
X34378360Y-27919960D01*
G75*
G02*
X34228360Y-27769960I0J150000D01*
G01*
G37*
%TD.AperFunction*%
%TO.P,U1,5*%
%TO.N,Net-(Q2-Pad3)*%
%TA.AperFunction,SMDPad,CuDef*%
G36*
G01*
X39178360Y-27769960D02*
X39178360Y-27469960D01*
G75*
G02*
X39328360Y-27319960I150000J0D01*
G01*
X40978360Y-27319960D01*
G75*
G02*
X41128360Y-27469960I0J-150000D01*
G01*
X41128360Y-27769960D01*
G75*
G02*
X40978360Y-27919960I-150000J0D01*
G01*
X39328360Y-27919960D01*
G75*
G02*
X39178360Y-27769960I0J150000D01*
G01*
G37*
%TD.AperFunction*%
%TO.P,U1,6*%
%TO.N,Net-(C4-Pad1)*%
%TA.AperFunction,SMDPad,CuDef*%
G36*
G01*
X39178360Y-26499960D02*
X39178360Y-26199960D01*
G75*
G02*
X39328360Y-26049960I150000J0D01*
G01*
X40978360Y-26049960D01*
G75*
G02*
X41128360Y-26199960I0J-150000D01*
G01*
X41128360Y-26499960D01*
G75*
G02*
X40978360Y-26649960I-150000J0D01*
G01*
X39328360Y-26649960D01*
G75*
G02*
X39178360Y-26499960I0J150000D01*
G01*
G37*
%TD.AperFunction*%
%TO.P,U1,7*%
%TO.N,Net-(C4-Pad2)*%
%TA.AperFunction,SMDPad,CuDef*%
G36*
G01*
X39178360Y-25229960D02*
X39178360Y-24929960D01*
G75*
G02*
X39328360Y-24779960I150000J0D01*
G01*
X40978360Y-24779960D01*
G75*
G02*
X41128360Y-24929960I0J-150000D01*
G01*
X41128360Y-25229960D01*
G75*
G02*
X40978360Y-25379960I-150000J0D01*
G01*
X39328360Y-25379960D01*
G75*
G02*
X39178360Y-25229960I0J150000D01*
G01*
G37*
%TD.AperFunction*%
%TO.P,U1,8*%
%TO.N,+15V*%
%TA.AperFunction,SMDPad,CuDef*%
G36*
G01*
X39178360Y-23959960D02*
X39178360Y-23659960D01*
G75*
G02*
X39328360Y-23509960I150000J0D01*
G01*
X40978360Y-23509960D01*
G75*
G02*
X41128360Y-23659960I0J-150000D01*
G01*
X41128360Y-23959960D01*
G75*
G02*
X40978360Y-24109960I-150000J0D01*
G01*
X39328360Y-24109960D01*
G75*
G02*
X39178360Y-23959960I0J150000D01*
G01*
G37*
%TD.AperFunction*%
%TD*%
%TO.P,R12,2*%
%TO.N,Net-(Q4-Pad2)*%
%TA.AperFunction,SMDPad,CuDef*%
G36*
G01*
X54995400Y-30841000D02*
X55545400Y-30841000D01*
G75*
G02*
X55745400Y-31041000I0J-200000D01*
G01*
X55745400Y-31441000D01*
G75*
G02*
X55545400Y-31641000I-200000J0D01*
G01*
X54995400Y-31641000D01*
G75*
G02*
X54795400Y-31441000I0J200000D01*
G01*
X54795400Y-31041000D01*
G75*
G02*
X54995400Y-30841000I200000J0D01*
G01*
G37*
%TD.AperFunction*%
%TO.P,R12,1*%
%TO.N,Net-(C4-Pad1)*%
%TA.AperFunction,SMDPad,CuDef*%
G36*
G01*
X54995400Y-29191000D02*
X55545400Y-29191000D01*
G75*
G02*
X55745400Y-29391000I0J-200000D01*
G01*
X55745400Y-29791000D01*
G75*
G02*
X55545400Y-29991000I-200000J0D01*
G01*
X54995400Y-29991000D01*
G75*
G02*
X54795400Y-29791000I0J200000D01*
G01*
X54795400Y-29391000D01*
G75*
G02*
X54995400Y-29191000I200000J0D01*
G01*
G37*
%TD.AperFunction*%
%TD*%
%TO.P,R11,2*%
%TO.N,Net-(Q4-Pad2)*%
%TA.AperFunction,SMDPad,CuDef*%
G36*
G01*
X51262600Y-22319660D02*
X51262600Y-21769660D01*
G75*
G02*
X51462600Y-21569660I200000J0D01*
G01*
X51862600Y-21569660D01*
G75*
G02*
X52062600Y-21769660I0J-200000D01*
G01*
X52062600Y-22319660D01*
G75*
G02*
X51862600Y-22519660I-200000J0D01*
G01*
X51462600Y-22519660D01*
G75*
G02*
X51262600Y-22319660I0J200000D01*
G01*
G37*
%TD.AperFunction*%
%TO.P,R11,1*%
%TO.N,Net-(Q1-Pad1)*%
%TA.AperFunction,SMDPad,CuDef*%
G36*
G01*
X49612600Y-22319660D02*
X49612600Y-21769660D01*
G75*
G02*
X49812600Y-21569660I200000J0D01*
G01*
X50212600Y-21569660D01*
G75*
G02*
X50412600Y-21769660I0J-200000D01*
G01*
X50412600Y-22319660D01*
G75*
G02*
X50212600Y-22519660I-200000J0D01*
G01*
X49812600Y-22519660D01*
G75*
G02*
X49612600Y-22319660I0J200000D01*
G01*
G37*
%TD.AperFunction*%
%TD*%
%TO.P,R10,1*%
%TO.N,Net-(JP1-Pad3)*%
%TA.AperFunction,SMDPad,CuDef*%
G36*
G01*
X43415000Y-38171800D02*
X43415000Y-37621800D01*
G75*
G02*
X43615000Y-37421800I200000J0D01*
G01*
X44015000Y-37421800D01*
G75*
G02*
X44215000Y-37621800I0J-200000D01*
G01*
X44215000Y-38171800D01*
G75*
G02*
X44015000Y-38371800I-200000J0D01*
G01*
X43615000Y-38371800D01*
G75*
G02*
X43415000Y-38171800I0J200000D01*
G01*
G37*
%TD.AperFunction*%
%TO.P,R10,2*%
%TO.N,Net-(D3-Pad2)*%
%TA.AperFunction,SMDPad,CuDef*%
G36*
G01*
X45065000Y-38171800D02*
X45065000Y-37621800D01*
G75*
G02*
X45265000Y-37421800I200000J0D01*
G01*
X45665000Y-37421800D01*
G75*
G02*
X45865000Y-37621800I0J-200000D01*
G01*
X45865000Y-38171800D01*
G75*
G02*
X45665000Y-38371800I-200000J0D01*
G01*
X45265000Y-38371800D01*
G75*
G02*
X45065000Y-38171800I0J200000D01*
G01*
G37*
%TD.AperFunction*%
%TD*%
%TO.P,R9,2*%
%TO.N,+15V*%
%TA.AperFunction,SMDPad,CuDef*%
G36*
G01*
X52584400Y-31999600D02*
X52584400Y-31449600D01*
G75*
G02*
X52784400Y-31249600I200000J0D01*
G01*
X53184400Y-31249600D01*
G75*
G02*
X53384400Y-31449600I0J-200000D01*
G01*
X53384400Y-31999600D01*
G75*
G02*
X53184400Y-32199600I-200000J0D01*
G01*
X52784400Y-32199600D01*
G75*
G02*
X52584400Y-31999600I0J200000D01*
G01*
G37*
%TD.AperFunction*%
%TO.P,R9,1*%
%TO.N,Net-(Q2-Pad3)*%
%TA.AperFunction,SMDPad,CuDef*%
G36*
G01*
X50934400Y-31999600D02*
X50934400Y-31449600D01*
G75*
G02*
X51134400Y-31249600I200000J0D01*
G01*
X51534400Y-31249600D01*
G75*
G02*
X51734400Y-31449600I0J-200000D01*
G01*
X51734400Y-31999600D01*
G75*
G02*
X51534400Y-32199600I-200000J0D01*
G01*
X51134400Y-32199600D01*
G75*
G02*
X50934400Y-31999600I0J200000D01*
G01*
G37*
%TD.AperFunction*%
%TD*%
%TO.P,R8,2*%
%TO.N,Net-(C2-Pad1)*%
%TA.AperFunction,SMDPad,CuDef*%
G36*
G01*
X40240000Y-33244200D02*
X40240000Y-32694200D01*
G75*
G02*
X40440000Y-32494200I200000J0D01*
G01*
X40840000Y-32494200D01*
G75*
G02*
X41040000Y-32694200I0J-200000D01*
G01*
X41040000Y-33244200D01*
G75*
G02*
X40840000Y-33444200I-200000J0D01*
G01*
X40440000Y-33444200D01*
G75*
G02*
X40240000Y-33244200I0J200000D01*
G01*
G37*
%TD.AperFunction*%
%TO.P,R8,1*%
%TO.N,GND*%
%TA.AperFunction,SMDPad,CuDef*%
G36*
G01*
X38590000Y-33244200D02*
X38590000Y-32694200D01*
G75*
G02*
X38790000Y-32494200I200000J0D01*
G01*
X39190000Y-32494200D01*
G75*
G02*
X39390000Y-32694200I0J-200000D01*
G01*
X39390000Y-33244200D01*
G75*
G02*
X39190000Y-33444200I-200000J0D01*
G01*
X38790000Y-33444200D01*
G75*
G02*
X38590000Y-33244200I0J200000D01*
G01*
G37*
%TD.AperFunction*%
%TD*%
%TO.P,R7,2*%
%TO.N,Net-(C4-Pad2)*%
%TA.AperFunction,SMDPad,CuDef*%
G36*
G01*
X47200500Y-24667800D02*
X47200500Y-25217800D01*
G75*
G02*
X47000500Y-25417800I-200000J0D01*
G01*
X46600500Y-25417800D01*
G75*
G02*
X46400500Y-25217800I0J200000D01*
G01*
X46400500Y-24667800D01*
G75*
G02*
X46600500Y-24467800I200000J0D01*
G01*
X47000500Y-24467800D01*
G75*
G02*
X47200500Y-24667800I0J-200000D01*
G01*
G37*
%TD.AperFunction*%
%TO.P,R7,1*%
%TO.N,Net-(Q1-Pad3)*%
%TA.AperFunction,SMDPad,CuDef*%
G36*
G01*
X48850500Y-24667800D02*
X48850500Y-25217800D01*
G75*
G02*
X48650500Y-25417800I-200000J0D01*
G01*
X48250500Y-25417800D01*
G75*
G02*
X48050500Y-25217800I0J200000D01*
G01*
X48050500Y-24667800D01*
G75*
G02*
X48250500Y-24467800I200000J0D01*
G01*
X48650500Y-24467800D01*
G75*
G02*
X48850500Y-24667800I0J-200000D01*
G01*
G37*
%TD.AperFunction*%
%TD*%
%TO.P,R6,2*%
%TO.N,+15V*%
%TA.AperFunction,SMDPad,CuDef*%
G36*
G01*
X52672800Y-29078600D02*
X52672800Y-28528600D01*
G75*
G02*
X52872800Y-28328600I200000J0D01*
G01*
X53272800Y-28328600D01*
G75*
G02*
X53472800Y-28528600I0J-200000D01*
G01*
X53472800Y-29078600D01*
G75*
G02*
X53272800Y-29278600I-200000J0D01*
G01*
X52872800Y-29278600D01*
G75*
G02*
X52672800Y-29078600I0J200000D01*
G01*
G37*
%TD.AperFunction*%
%TO.P,R6,1*%
%TO.N,Net-(C4-Pad1)*%
%TA.AperFunction,SMDPad,CuDef*%
G36*
G01*
X51022800Y-29078600D02*
X51022800Y-28528600D01*
G75*
G02*
X51222800Y-28328600I200000J0D01*
G01*
X51622800Y-28328600D01*
G75*
G02*
X51822800Y-28528600I0J-200000D01*
G01*
X51822800Y-29078600D01*
G75*
G02*
X51622800Y-29278600I-200000J0D01*
G01*
X51222800Y-29278600D01*
G75*
G02*
X51022800Y-29078600I0J200000D01*
G01*
G37*
%TD.AperFunction*%
%TD*%
%TO.P,R5,2*%
%TO.N,GND*%
%TA.AperFunction,SMDPad,CuDef*%
G36*
G01*
X45243800Y-35682600D02*
X45243800Y-35132600D01*
G75*
G02*
X45443800Y-34932600I200000J0D01*
G01*
X45843800Y-34932600D01*
G75*
G02*
X46043800Y-35132600I0J-200000D01*
G01*
X46043800Y-35682600D01*
G75*
G02*
X45843800Y-35882600I-200000J0D01*
G01*
X45443800Y-35882600D01*
G75*
G02*
X45243800Y-35682600I0J200000D01*
G01*
G37*
%TD.AperFunction*%
%TO.P,R5,1*%
%TO.N,Net-(JP1-Pad1)*%
%TA.AperFunction,SMDPad,CuDef*%
G36*
G01*
X43593800Y-35682600D02*
X43593800Y-35132600D01*
G75*
G02*
X43793800Y-34932600I200000J0D01*
G01*
X44193800Y-34932600D01*
G75*
G02*
X44393800Y-35132600I0J-200000D01*
G01*
X44393800Y-35682600D01*
G75*
G02*
X44193800Y-35882600I-200000J0D01*
G01*
X43793800Y-35882600D01*
G75*
G02*
X43593800Y-35682600I0J200000D01*
G01*
G37*
%TD.AperFunction*%
%TD*%
%TO.P,R4,2*%
%TO.N,+15V*%
%TA.AperFunction,SMDPad,CuDef*%
G36*
G01*
X49155400Y-30374000D02*
X49155400Y-29824000D01*
G75*
G02*
X49355400Y-29624000I200000J0D01*
G01*
X49755400Y-29624000D01*
G75*
G02*
X49955400Y-29824000I0J-200000D01*
G01*
X49955400Y-30374000D01*
G75*
G02*
X49755400Y-30574000I-200000J0D01*
G01*
X49355400Y-30574000D01*
G75*
G02*
X49155400Y-30374000I0J200000D01*
G01*
G37*
%TD.AperFunction*%
%TO.P,R4,1*%
%TO.N,Net-(Q2-Pad3)*%
%TA.AperFunction,SMDPad,CuDef*%
G36*
G01*
X47505400Y-30374000D02*
X47505400Y-29824000D01*
G75*
G02*
X47705400Y-29624000I200000J0D01*
G01*
X48105400Y-29624000D01*
G75*
G02*
X48305400Y-29824000I0J-200000D01*
G01*
X48305400Y-30374000D01*
G75*
G02*
X48105400Y-30574000I-200000J0D01*
G01*
X47705400Y-30574000D01*
G75*
G02*
X47505400Y-30374000I0J200000D01*
G01*
G37*
%TD.AperFunction*%
%TD*%
%TO.P,R3,2*%
%TO.N,Net-(C2-Pad1)*%
%TA.AperFunction,SMDPad,CuDef*%
G36*
G01*
X40316200Y-30501000D02*
X40316200Y-29951000D01*
G75*
G02*
X40516200Y-29751000I200000J0D01*
G01*
X40916200Y-29751000D01*
G75*
G02*
X41116200Y-29951000I0J-200000D01*
G01*
X41116200Y-30501000D01*
G75*
G02*
X40916200Y-30701000I-200000J0D01*
G01*
X40516200Y-30701000D01*
G75*
G02*
X40316200Y-30501000I0J200000D01*
G01*
G37*
%TD.AperFunction*%
%TO.P,R3,1*%
%TO.N,Net-(R3-Pad1)*%
%TA.AperFunction,SMDPad,CuDef*%
G36*
G01*
X38666200Y-30501000D02*
X38666200Y-29951000D01*
G75*
G02*
X38866200Y-29751000I200000J0D01*
G01*
X39266200Y-29751000D01*
G75*
G02*
X39466200Y-29951000I0J-200000D01*
G01*
X39466200Y-30501000D01*
G75*
G02*
X39266200Y-30701000I-200000J0D01*
G01*
X38866200Y-30701000D01*
G75*
G02*
X38666200Y-30501000I0J200000D01*
G01*
G37*
%TD.AperFunction*%
%TD*%
%TO.P,R2,2*%
%TO.N,GND*%
%TA.AperFunction,SMDPad,CuDef*%
G36*
G01*
X28264800Y-23194600D02*
X28264800Y-23744600D01*
G75*
G02*
X28064800Y-23944600I-200000J0D01*
G01*
X27664800Y-23944600D01*
G75*
G02*
X27464800Y-23744600I0J200000D01*
G01*
X27464800Y-23194600D01*
G75*
G02*
X27664800Y-22994600I200000J0D01*
G01*
X28064800Y-22994600D01*
G75*
G02*
X28264800Y-23194600I0J-200000D01*
G01*
G37*
%TD.AperFunction*%
%TO.P,R2,1*%
%TO.N,Net-(JP1-Pad2)*%
%TA.AperFunction,SMDPad,CuDef*%
G36*
G01*
X29914800Y-23194600D02*
X29914800Y-23744600D01*
G75*
G02*
X29714800Y-23944600I-200000J0D01*
G01*
X29314800Y-23944600D01*
G75*
G02*
X29114800Y-23744600I0J200000D01*
G01*
X29114800Y-23194600D01*
G75*
G02*
X29314800Y-22994600I200000J0D01*
G01*
X29714800Y-22994600D01*
G75*
G02*
X29914800Y-23194600I0J-200000D01*
G01*
G37*
%TD.AperFunction*%
%TD*%
%TO.P,R1,1*%
%TO.N,IN_1+*%
%TA.AperFunction,SMDPad,CuDef*%
G36*
G01*
X27438400Y-26665600D02*
X27438400Y-26115600D01*
G75*
G02*
X27638400Y-25915600I200000J0D01*
G01*
X28038400Y-25915600D01*
G75*
G02*
X28238400Y-26115600I0J-200000D01*
G01*
X28238400Y-26665600D01*
G75*
G02*
X28038400Y-26865600I-200000J0D01*
G01*
X27638400Y-26865600D01*
G75*
G02*
X27438400Y-26665600I0J200000D01*
G01*
G37*
%TD.AperFunction*%
%TO.P,R1,2*%
%TO.N,Net-(D1-Pad1)*%
%TA.AperFunction,SMDPad,CuDef*%
G36*
G01*
X29088400Y-26665600D02*
X29088400Y-26115600D01*
G75*
G02*
X29288400Y-25915600I200000J0D01*
G01*
X29688400Y-25915600D01*
G75*
G02*
X29888400Y-26115600I0J-200000D01*
G01*
X29888400Y-26665600D01*
G75*
G02*
X29688400Y-26865600I-200000J0D01*
G01*
X29288400Y-26865600D01*
G75*
G02*
X29088400Y-26665600I0J200000D01*
G01*
G37*
%TD.AperFunction*%
%TD*%
D17*
%TO.P,Q4,1*%
%TO.N,Net-(Q1-Pad3)*%
X52729600Y-34664300D03*
%TO.P,Q4,3*%
%TO.N,Net-(D3-Pad2)*%
X52729600Y-39224300D03*
D18*
%TO.P,Q4,2*%
%TO.N,Net-(Q4-Pad2)*%
X59029600Y-36944300D03*
%TD*%
D19*
%TO.P,Q2,3*%
%TO.N,Net-(Q2-Pad3)*%
X46094400Y-31226800D03*
%TO.P,Q2,2*%
%TO.N,Net-(JP1-Pad1)*%
X44094400Y-32176800D03*
%TO.P,Q2,1*%
%TO.N,Net-(C2-Pad1)*%
X44094400Y-30276800D03*
%TD*%
%TO.P,Q1,3*%
%TO.N,Net-(Q1-Pad3)*%
X53200300Y-25996900D03*
%TO.P,Q1,2*%
%TO.N,Net-(C4-Pad1)*%
X51200300Y-26946900D03*
%TO.P,Q1,1*%
%TO.N,Net-(Q1-Pad1)*%
X51200300Y-25046900D03*
%TD*%
%TO.P,D4,2*%
%TO.N,GND*%
%TA.AperFunction,SMDPad,CuDef*%
G36*
G01*
X64080500Y-19421002D02*
X64080500Y-18170998D01*
G75*
G02*
X64330498Y-17921000I249998J0D01*
G01*
X64955502Y-17921000D01*
G75*
G02*
X65205500Y-18170998I0J-249998D01*
G01*
X65205500Y-19421002D01*
G75*
G02*
X64955502Y-19671000I-249998J0D01*
G01*
X64330498Y-19671000D01*
G75*
G02*
X64080500Y-19421002I0J249998D01*
G01*
G37*
%TD.AperFunction*%
%TO.P,D4,1*%
%TO.N,Net-(D3-Pad2)*%
%TA.AperFunction,SMDPad,CuDef*%
G36*
G01*
X61155500Y-19421002D02*
X61155500Y-18170998D01*
G75*
G02*
X61405498Y-17921000I249998J0D01*
G01*
X62030502Y-17921000D01*
G75*
G02*
X62280500Y-18170998I0J-249998D01*
G01*
X62280500Y-19421002D01*
G75*
G02*
X62030502Y-19671000I-249998J0D01*
G01*
X61405498Y-19671000D01*
G75*
G02*
X61155500Y-19421002I0J249998D01*
G01*
G37*
%TD.AperFunction*%
%TD*%
%TO.P,D3,2*%
%TO.N,Net-(D3-Pad2)*%
%TA.AperFunction,SMDPad,CuDef*%
G36*
G01*
X59258500Y-19421002D02*
X59258500Y-18170998D01*
G75*
G02*
X59508498Y-17921000I249998J0D01*
G01*
X60133502Y-17921000D01*
G75*
G02*
X60383500Y-18170998I0J-249998D01*
G01*
X60383500Y-19421002D01*
G75*
G02*
X60133502Y-19671000I-249998J0D01*
G01*
X59508498Y-19671000D01*
G75*
G02*
X59258500Y-19421002I0J249998D01*
G01*
G37*
%TD.AperFunction*%
%TO.P,D3,1*%
%TO.N,+15V*%
%TA.AperFunction,SMDPad,CuDef*%
G36*
G01*
X56333500Y-19421002D02*
X56333500Y-18170998D01*
G75*
G02*
X56583498Y-17921000I249998J0D01*
G01*
X57208502Y-17921000D01*
G75*
G02*
X57458500Y-18170998I0J-249998D01*
G01*
X57458500Y-19421002D01*
G75*
G02*
X57208502Y-19671000I-249998J0D01*
G01*
X56583498Y-19671000D01*
G75*
G02*
X56333500Y-19421002I0J249998D01*
G01*
G37*
%TD.AperFunction*%
%TD*%
%TO.P,D1,2*%
%TO.N,GND*%
%TA.AperFunction,SMDPad,CuDef*%
G36*
G01*
X27232500Y-28584998D02*
X27232500Y-29835002D01*
G75*
G02*
X26982502Y-30085000I-249998J0D01*
G01*
X26357498Y-30085000D01*
G75*
G02*
X26107500Y-29835002I0J249998D01*
G01*
X26107500Y-28584998D01*
G75*
G02*
X26357498Y-28335000I249998J0D01*
G01*
X26982502Y-28335000D01*
G75*
G02*
X27232500Y-28584998I0J-249998D01*
G01*
G37*
%TD.AperFunction*%
%TO.P,D1,1*%
%TO.N,Net-(D1-Pad1)*%
%TA.AperFunction,SMDPad,CuDef*%
G36*
G01*
X30157500Y-28584998D02*
X30157500Y-29835002D01*
G75*
G02*
X29907502Y-30085000I-249998J0D01*
G01*
X29282498Y-30085000D01*
G75*
G02*
X29032500Y-29835002I0J249998D01*
G01*
X29032500Y-28584998D01*
G75*
G02*
X29282498Y-28335000I249998J0D01*
G01*
X29907502Y-28335000D01*
G75*
G02*
X30157500Y-28584998I0J-249998D01*
G01*
G37*
%TD.AperFunction*%
%TD*%
%TO.P,C6,2*%
%TO.N,GND*%
%TA.AperFunction,SMDPad,CuDef*%
G36*
G01*
X51274800Y-19943000D02*
X51274800Y-20443000D01*
G75*
G02*
X51049800Y-20668000I-225000J0D01*
G01*
X50599800Y-20668000D01*
G75*
G02*
X50374800Y-20443000I0J225000D01*
G01*
X50374800Y-19943000D01*
G75*
G02*
X50599800Y-19718000I225000J0D01*
G01*
X51049800Y-19718000D01*
G75*
G02*
X51274800Y-19943000I0J-225000D01*
G01*
G37*
%TD.AperFunction*%
%TO.P,C6,1*%
%TO.N,+15V*%
%TA.AperFunction,SMDPad,CuDef*%
G36*
G01*
X52824800Y-19943000D02*
X52824800Y-20443000D01*
G75*
G02*
X52599800Y-20668000I-225000J0D01*
G01*
X52149800Y-20668000D01*
G75*
G02*
X51924800Y-20443000I0J225000D01*
G01*
X51924800Y-19943000D01*
G75*
G02*
X52149800Y-19718000I225000J0D01*
G01*
X52599800Y-19718000D01*
G75*
G02*
X52824800Y-19943000I0J-225000D01*
G01*
G37*
%TD.AperFunction*%
%TD*%
%TO.P,C5,2*%
%TO.N,GND*%
%TA.AperFunction,SMDPad,CuDef*%
G36*
G01*
X48420200Y-20468400D02*
X48420200Y-19968400D01*
G75*
G02*
X48645200Y-19743400I225000J0D01*
G01*
X49095200Y-19743400D01*
G75*
G02*
X49320200Y-19968400I0J-225000D01*
G01*
X49320200Y-20468400D01*
G75*
G02*
X49095200Y-20693400I-225000J0D01*
G01*
X48645200Y-20693400D01*
G75*
G02*
X48420200Y-20468400I0J225000D01*
G01*
G37*
%TD.AperFunction*%
%TO.P,C5,1*%
%TO.N,+24V*%
%TA.AperFunction,SMDPad,CuDef*%
G36*
G01*
X46870200Y-20468400D02*
X46870200Y-19968400D01*
G75*
G02*
X47095200Y-19743400I225000J0D01*
G01*
X47545200Y-19743400D01*
G75*
G02*
X47770200Y-19968400I0J-225000D01*
G01*
X47770200Y-20468400D01*
G75*
G02*
X47545200Y-20693400I-225000J0D01*
G01*
X47095200Y-20693400D01*
G75*
G02*
X46870200Y-20468400I0J225000D01*
G01*
G37*
%TD.AperFunction*%
%TD*%
%TO.P,C4,2*%
%TO.N,Net-(C4-Pad2)*%
%TA.AperFunction,SMDPad,CuDef*%
G36*
G01*
X46120900Y-26818400D02*
X46120900Y-26318400D01*
G75*
G02*
X46345900Y-26093400I225000J0D01*
G01*
X46795900Y-26093400D01*
G75*
G02*
X47020900Y-26318400I0J-225000D01*
G01*
X47020900Y-26818400D01*
G75*
G02*
X46795900Y-27043400I-225000J0D01*
G01*
X46345900Y-27043400D01*
G75*
G02*
X46120900Y-26818400I0J225000D01*
G01*
G37*
%TD.AperFunction*%
%TO.P,C4,1*%
%TO.N,Net-(C4-Pad1)*%
%TA.AperFunction,SMDPad,CuDef*%
G36*
G01*
X44570900Y-26818400D02*
X44570900Y-26318400D01*
G75*
G02*
X44795900Y-26093400I225000J0D01*
G01*
X45245900Y-26093400D01*
G75*
G02*
X45470900Y-26318400I0J-225000D01*
G01*
X45470900Y-26818400D01*
G75*
G02*
X45245900Y-27043400I-225000J0D01*
G01*
X44795900Y-27043400D01*
G75*
G02*
X44570900Y-26818400I0J225000D01*
G01*
G37*
%TD.AperFunction*%
%TD*%
%TO.P,C3,2*%
%TO.N,GND*%
%TA.AperFunction,SMDPad,CuDef*%
G36*
G01*
X39794000Y-20070000D02*
X39794000Y-20570000D01*
G75*
G02*
X39569000Y-20795000I-225000J0D01*
G01*
X39119000Y-20795000D01*
G75*
G02*
X38894000Y-20570000I0J225000D01*
G01*
X38894000Y-20070000D01*
G75*
G02*
X39119000Y-19845000I225000J0D01*
G01*
X39569000Y-19845000D01*
G75*
G02*
X39794000Y-20070000I0J-225000D01*
G01*
G37*
%TD.AperFunction*%
%TO.P,C3,1*%
%TO.N,+15V*%
%TA.AperFunction,SMDPad,CuDef*%
G36*
G01*
X41344000Y-20070000D02*
X41344000Y-20570000D01*
G75*
G02*
X41119000Y-20795000I-225000J0D01*
G01*
X40669000Y-20795000D01*
G75*
G02*
X40444000Y-20570000I0J225000D01*
G01*
X40444000Y-20070000D01*
G75*
G02*
X40669000Y-19845000I225000J0D01*
G01*
X41119000Y-19845000D01*
G75*
G02*
X41344000Y-20070000I0J-225000D01*
G01*
G37*
%TD.AperFunction*%
%TD*%
%TO.P,C2,2*%
%TO.N,GND*%
%TA.AperFunction,SMDPad,CuDef*%
G36*
G01*
X39413600Y-35208400D02*
X39413600Y-35708400D01*
G75*
G02*
X39188600Y-35933400I-225000J0D01*
G01*
X38738600Y-35933400D01*
G75*
G02*
X38513600Y-35708400I0J225000D01*
G01*
X38513600Y-35208400D01*
G75*
G02*
X38738600Y-34983400I225000J0D01*
G01*
X39188600Y-34983400D01*
G75*
G02*
X39413600Y-35208400I0J-225000D01*
G01*
G37*
%TD.AperFunction*%
%TO.P,C2,1*%
%TO.N,Net-(C2-Pad1)*%
%TA.AperFunction,SMDPad,CuDef*%
G36*
G01*
X40963600Y-35208400D02*
X40963600Y-35708400D01*
G75*
G02*
X40738600Y-35933400I-225000J0D01*
G01*
X40288600Y-35933400D01*
G75*
G02*
X40063600Y-35708400I0J225000D01*
G01*
X40063600Y-35208400D01*
G75*
G02*
X40288600Y-34983400I225000J0D01*
G01*
X40738600Y-34983400D01*
G75*
G02*
X40963600Y-35208400I0J-225000D01*
G01*
G37*
%TD.AperFunction*%
%TD*%
%TO.P,C1,2*%
%TO.N,GND*%
%TA.AperFunction,SMDPad,CuDef*%
G36*
G01*
X39794000Y-21594000D02*
X39794000Y-22094000D01*
G75*
G02*
X39569000Y-22319000I-225000J0D01*
G01*
X39119000Y-22319000D01*
G75*
G02*
X38894000Y-22094000I0J225000D01*
G01*
X38894000Y-21594000D01*
G75*
G02*
X39119000Y-21369000I225000J0D01*
G01*
X39569000Y-21369000D01*
G75*
G02*
X39794000Y-21594000I0J-225000D01*
G01*
G37*
%TD.AperFunction*%
%TO.P,C1,1*%
%TO.N,+15V*%
%TA.AperFunction,SMDPad,CuDef*%
G36*
G01*
X41344000Y-21594000D02*
X41344000Y-22094000D01*
G75*
G02*
X41119000Y-22319000I-225000J0D01*
G01*
X40669000Y-22319000D01*
G75*
G02*
X40444000Y-22094000I0J225000D01*
G01*
X40444000Y-21594000D01*
G75*
G02*
X40669000Y-21369000I225000J0D01*
G01*
X41119000Y-21369000D01*
G75*
G02*
X41344000Y-21594000I0J-225000D01*
G01*
G37*
%TD.AperFunction*%
%TD*%
D20*
%TO.N,GND*%
X39116000Y-37592000D03*
X48006000Y-35306000D03*
X35052000Y-37846000D03*
X48006000Y-40894000D03*
%TO.N,+15V*%
X61722000Y-30988000D03*
X52880260Y-30099000D03*
X43688000Y-20828000D03*
X54864000Y-20066000D03*
%TO.N,Net-(Q1-Pad1)*%
X49022000Y-26416000D03*
X46990000Y-22606000D03*
%TD*%
D21*
%TO.N,+24V*%
X46639480Y-16718280D02*
X33923700Y-16718280D01*
X47396400Y-17475200D02*
X46639480Y-16718280D01*
X47320200Y-17551400D02*
X47396400Y-17475200D01*
X47320200Y-20218400D02*
X47320200Y-17551400D01*
%TO.N,Net-(C2-Pad1)*%
X40640000Y-30302200D02*
X40716200Y-30226000D01*
X40640000Y-32969200D02*
X40640000Y-30302200D01*
X40513600Y-33095600D02*
X40640000Y-32969200D01*
X40513600Y-35458400D02*
X40513600Y-33095600D01*
X44043600Y-30226000D02*
X44094400Y-30276800D01*
X40716200Y-30226000D02*
X44043600Y-30226000D01*
D22*
%TO.N,Net-(C4-Pad2)*%
X46663340Y-25079960D02*
X46800500Y-24942800D01*
D23*
X40153360Y-25079960D02*
X46663340Y-25079960D01*
D22*
X46570900Y-25172400D02*
X46800500Y-24942800D01*
D21*
X46570900Y-26568400D02*
X46570900Y-25172400D01*
D23*
%TO.N,Net-(C4-Pad1)*%
X51609200Y-27355800D02*
X51200300Y-26946900D01*
X55270400Y-28117800D02*
X54508400Y-27355800D01*
X54508400Y-27355800D02*
X51609200Y-27355800D01*
X55270400Y-29591000D02*
X55270400Y-28117800D01*
X51422800Y-27169400D02*
X51200300Y-26946900D01*
X51422800Y-28803600D02*
X51422800Y-27169400D01*
X44802460Y-26349960D02*
X45020900Y-26568400D01*
X40153360Y-26349960D02*
X44802460Y-26349960D01*
X45214071Y-26761571D02*
X45020900Y-26568400D01*
X51200300Y-26946900D02*
X50207200Y-27940000D01*
X50207200Y-27940000D02*
X45917500Y-27940000D01*
X45917500Y-27940000D02*
X45214071Y-27236571D01*
X45214071Y-27236571D02*
X45214071Y-26761571D01*
D22*
%TO.N,+15V*%
X40793000Y-20307000D02*
X40780000Y-20320000D01*
D21*
X52374800Y-17576800D02*
X52476400Y-17475200D01*
D22*
X52984400Y-28892000D02*
X53072800Y-28803600D01*
D21*
X61595000Y-27871420D02*
X61595000Y-29845000D01*
D22*
X52964080Y-31724600D02*
X52984400Y-31724600D01*
X52880260Y-30099000D02*
X52880260Y-30099000D01*
D21*
X55575200Y-17475200D02*
X52476400Y-17475200D01*
X56896000Y-18796000D02*
X55575200Y-17475200D01*
D23*
X40894000Y-21844000D02*
X40894000Y-20320000D01*
X43357800Y-23058120D02*
X43357800Y-22098000D01*
X42605960Y-23809960D02*
X43357800Y-23058120D01*
X40153360Y-23809960D02*
X42605960Y-23809960D01*
D21*
X61595000Y-27871420D02*
X61595000Y-27813000D01*
X61595000Y-27813000D02*
X56642000Y-22860000D01*
X56642000Y-22860000D02*
X56642000Y-21844000D01*
D23*
X52753260Y-30226000D02*
X52880260Y-30099000D01*
X49682400Y-30226000D02*
X52753260Y-30226000D01*
X49555400Y-30099000D02*
X49682400Y-30226000D01*
%TO.N,Net-(D1-Pad1)*%
X35162720Y-26390600D02*
X35203360Y-26349960D01*
X29488400Y-26390600D02*
X35162720Y-26390600D01*
X29595000Y-26497200D02*
X29488400Y-26390600D01*
X29595000Y-29210000D02*
X29595000Y-26497200D01*
D21*
%TO.N,Net-(D3-Pad2)*%
X52723600Y-39230300D02*
X52729600Y-39224300D01*
X46798500Y-39230300D02*
X52723600Y-39230300D01*
X45465000Y-37896800D02*
X46798500Y-39230300D01*
X52729600Y-42634700D02*
X52146200Y-43218100D01*
X52729600Y-39224300D02*
X52729600Y-42634700D01*
X61718000Y-18796000D02*
X59821000Y-18796000D01*
X61718000Y-22221000D02*
X61718000Y-18796000D01*
X66040000Y-26543000D02*
X61718000Y-22221000D01*
X66040000Y-39370000D02*
X66040000Y-26543000D01*
X62191900Y-43218100D02*
X66040000Y-39370000D01*
X59766200Y-43218100D02*
X62191900Y-43218100D01*
D23*
%TO.N,Net-(Q1-Pad3)*%
X55257700Y-25996900D02*
X53200300Y-25996900D01*
X57404000Y-28143200D02*
X55257700Y-25996900D01*
X57404000Y-31163260D02*
X57404000Y-28143200D01*
X53902960Y-34664300D02*
X57404000Y-31163260D01*
X52729600Y-34664300D02*
X53902960Y-34664300D01*
X48450500Y-24942800D02*
X49993290Y-23400010D01*
X49993290Y-23400010D02*
X51753410Y-23400010D01*
X51753410Y-23400010D02*
X53200300Y-24846900D01*
X53200300Y-24846900D02*
X53200300Y-25996900D01*
%TO.N,Net-(Q2-Pad3)*%
X46592200Y-31724600D02*
X46094400Y-31226800D01*
X51334400Y-31724600D02*
X46592200Y-31724600D01*
X47222200Y-30099000D02*
X46094400Y-31226800D01*
X47905400Y-30099000D02*
X47222200Y-30099000D01*
X46094400Y-29838400D02*
X46094400Y-31226800D01*
X43914060Y-27658060D02*
X46094400Y-29838400D01*
X43914060Y-27619960D02*
X43914060Y-27658060D01*
X40153360Y-27619960D02*
X43914060Y-27619960D01*
D21*
%TO.N,Net-(JP1-Pad1)*%
X43993800Y-32277400D02*
X44094400Y-32176800D01*
X43993800Y-35407600D02*
X43993800Y-32277400D01*
X43967400Y-35407600D02*
X43993800Y-35407600D01*
X39395400Y-39979600D02*
X43967400Y-35407600D01*
X39395400Y-40640000D02*
X39395400Y-39979600D01*
%TO.N,Net-(Q4-Pad2)*%
X58407300Y-36322000D02*
X59029600Y-36944300D01*
D23*
X51079400Y-36322000D02*
X58407300Y-36322000D01*
X50711100Y-35953700D02*
X51079400Y-36322000D01*
X50711100Y-33693100D02*
X50711100Y-35953700D01*
X51358800Y-33045400D02*
X50711100Y-33693100D01*
X53832760Y-33045400D02*
X51358800Y-33045400D01*
X55270400Y-31607760D02*
X53832760Y-33045400D01*
X55270400Y-31241000D02*
X55270400Y-31607760D01*
D21*
X59029600Y-27597100D02*
X59029600Y-36944300D01*
X51868840Y-21981160D02*
X53413660Y-21981160D01*
X53413660Y-21981160D02*
X59029600Y-27597100D01*
%TO.N,IN_1+*%
X27838400Y-26390600D02*
X20320000Y-26390600D01*
D23*
%TO.N,Net-(JP1-Pad2)*%
X32318960Y-25079960D02*
X35203360Y-25079960D01*
X30708600Y-23469600D02*
X32318960Y-25079960D01*
X29514800Y-23469600D02*
X30708600Y-23469600D01*
X37114480Y-42118280D02*
X37114480Y-25430480D01*
X38176200Y-43180000D02*
X37114480Y-42118280D01*
X40487600Y-43180000D02*
X38176200Y-43180000D01*
X36763960Y-25079960D02*
X35203360Y-25079960D01*
X37114480Y-25430480D02*
X36763960Y-25079960D01*
X41935400Y-41732200D02*
X40487600Y-43180000D01*
X41935400Y-40640000D02*
X41935400Y-41732200D01*
%TO.N,Net-(R3-Pad1)*%
X39066200Y-29338000D02*
X39066200Y-30226000D01*
X38333680Y-28605480D02*
X39066200Y-29338000D01*
X38333680Y-24701500D02*
X38333680Y-28605480D01*
X37442140Y-23809960D02*
X38333680Y-24701500D01*
X35203360Y-23809960D02*
X37442140Y-23809960D01*
D21*
%TO.N,Net-(JP1-Pad3)*%
X43815000Y-39979600D02*
X43815000Y-37896800D01*
X44475400Y-40640000D02*
X43815000Y-39979600D01*
%TD*%
D24*
%TO.N,VIN*%
X32258000Y-20701000D02*
X17907000Y-20701000D01*
X17907000Y-14732000D01*
X32258000Y-14732000D01*
X32258000Y-20701000D01*
%TA.AperFunction,Conductor*%
D25*
G36*
X32258000Y-20701000D02*
G01*
X17907000Y-20701000D01*
X17907000Y-14732000D01*
X32258000Y-14732000D01*
X32258000Y-20701000D01*
G37*
%TD.AperFunction*%
%TD*%
D24*
%TO.N,IN_1+*%
X21463000Y-34728444D02*
X15367000Y-34796573D01*
X15367000Y-23620588D01*
X21463000Y-23552459D01*
X21463000Y-34728444D01*
%TA.AperFunction,Conductor*%
D25*
G36*
X21463000Y-34728444D02*
G01*
X15367000Y-34796573D01*
X15367000Y-23620588D01*
X21463000Y-23552459D01*
X21463000Y-34728444D01*
G37*
%TD.AperFunction*%
%TD*%
D24*
%TO.N,Net-(D3-Pad2)*%
X61468000Y-47498000D02*
X50292000Y-47498000D01*
X50292000Y-42037000D01*
X61468000Y-42037000D01*
X61468000Y-47498000D01*
%TA.AperFunction,Conductor*%
D25*
G36*
X61468000Y-47498000D02*
G01*
X50292000Y-47498000D01*
X50292000Y-42037000D01*
X61468000Y-42037000D01*
X61468000Y-47498000D01*
G37*
%TD.AperFunction*%
%TD*%
D24*
%TO.N,+15V*%
X63373000Y-32258000D02*
X60452000Y-32258000D01*
X60452000Y-29337000D01*
X63373000Y-29337000D01*
X63373000Y-32258000D01*
%TA.AperFunction,Conductor*%
D25*
G36*
X63373000Y-32258000D02*
G01*
X60452000Y-32258000D01*
X60452000Y-29337000D01*
X63373000Y-29337000D01*
X63373000Y-32258000D01*
G37*
%TD.AperFunction*%
%TD*%
D24*
%TO.N,+15V*%
X53848000Y-31601804D02*
X53414405Y-32035400D01*
X52451000Y-32035400D01*
X52451000Y-29178834D01*
X52460872Y-29078600D01*
X52460872Y-28528600D01*
X52451000Y-28428365D01*
X52451000Y-28365800D01*
X53848000Y-28365800D01*
X53848000Y-31601804D01*
%TA.AperFunction,Conductor*%
D25*
G36*
X53848000Y-31601804D02*
G01*
X53414405Y-32035400D01*
X52451000Y-32035400D01*
X52451000Y-29178834D01*
X52460872Y-29078600D01*
X52460872Y-28528600D01*
X52451000Y-28428365D01*
X52451000Y-28365800D01*
X53848000Y-28365800D01*
X53848000Y-31601804D01*
G37*
%TD.AperFunction*%
%TD*%
D24*
%TO.N,GND*%
X67920001Y-48227572D02*
X67920000Y-48227582D01*
X67920001Y-49505000D01*
X13360000Y-49505000D01*
X13360000Y-23495000D01*
X14605000Y-23495000D01*
X14605000Y-34925000D01*
X14618625Y-35055835D01*
X14656089Y-35174545D01*
X14715992Y-35283665D01*
X14796033Y-35379003D01*
X14893135Y-35456893D01*
X15003567Y-35514343D01*
X15123085Y-35549144D01*
X15247096Y-35559960D01*
X21597096Y-35488992D01*
X21713882Y-35476831D01*
X21833004Y-35440696D01*
X21942787Y-35382015D01*
X22039013Y-35303045D01*
X22117983Y-35206819D01*
X22176664Y-35097036D01*
X22212799Y-34977914D01*
X22225000Y-34854032D01*
X22225000Y-27525600D01*
X27894152Y-27525600D01*
X28060899Y-27509177D01*
X28098588Y-27497744D01*
X28201900Y-27487569D01*
X28359116Y-27439878D01*
X28504008Y-27362431D01*
X28585001Y-27295962D01*
X28585000Y-28041770D01*
X28544095Y-28091613D01*
X28462028Y-28245148D01*
X28411492Y-28411744D01*
X28394428Y-28584998D01*
X28394428Y-29835002D01*
X28411492Y-30008256D01*
X28462028Y-30174852D01*
X28544095Y-30328387D01*
X28654538Y-30462962D01*
X28789113Y-30573405D01*
X28942648Y-30655472D01*
X29109244Y-30706008D01*
X29282498Y-30723072D01*
X29907502Y-30723072D01*
X30080756Y-30706008D01*
X30247352Y-30655472D01*
X30400887Y-30573405D01*
X30535462Y-30462962D01*
X30645905Y-30328387D01*
X30727972Y-30174852D01*
X30778508Y-30008256D01*
X30795572Y-29835002D01*
X30795572Y-28584998D01*
X30778508Y-28411744D01*
X30727972Y-28245148D01*
X30645905Y-28091613D01*
X30605000Y-28041770D01*
X30605000Y-27400600D01*
X35113112Y-27400600D01*
X35162720Y-27405486D01*
X35360714Y-27385985D01*
X35391807Y-27376553D01*
X35551100Y-27328232D01*
X35626309Y-27288032D01*
X36028360Y-27288032D01*
X36104481Y-27280535D01*
X36104480Y-42068672D01*
X36099594Y-42118280D01*
X36119095Y-42316274D01*
X36148195Y-42412202D01*
X36176848Y-42506659D01*
X36270633Y-42682120D01*
X36396847Y-42835913D01*
X36435386Y-42867541D01*
X37426943Y-43859099D01*
X37458567Y-43897633D01*
X37612360Y-44023847D01*
X37787820Y-44117632D01*
X37978205Y-44175385D01*
X38176200Y-44194886D01*
X38225808Y-44190000D01*
X40437992Y-44190000D01*
X40487600Y-44194886D01*
X40685594Y-44175385D01*
X40715266Y-44166384D01*
X40875980Y-44117632D01*
X41051440Y-44023847D01*
X41205233Y-43897633D01*
X41236861Y-43859094D01*
X42614494Y-42481461D01*
X42653033Y-42449833D01*
X42779247Y-42296040D01*
X42873032Y-42120580D01*
X42930785Y-41930194D01*
X42945400Y-41781808D01*
X42945400Y-41781806D01*
X42950286Y-41732201D01*
X42949660Y-41725847D01*
X43088875Y-41586632D01*
X43205400Y-41412240D01*
X43321925Y-41586632D01*
X43528768Y-41793475D01*
X43771989Y-41955990D01*
X44042242Y-42067932D01*
X44329140Y-42125000D01*
X44621660Y-42125000D01*
X44908558Y-42067932D01*
X45178811Y-41955990D01*
X45422032Y-41793475D01*
X45628875Y-41586632D01*
X45791390Y-41343411D01*
X45903332Y-41073158D01*
X45960400Y-40786260D01*
X45960400Y-40493740D01*
X45903332Y-40206842D01*
X45791390Y-39936589D01*
X45628875Y-39693368D01*
X45422032Y-39486525D01*
X45178811Y-39324010D01*
X44950000Y-39229234D01*
X44950000Y-38986931D01*
X45956508Y-39993440D01*
X45992051Y-40036749D01*
X46164877Y-40178584D01*
X46362053Y-40283976D01*
X46576001Y-40348877D01*
X46636515Y-40354837D01*
X46798500Y-40370791D01*
X46854252Y-40365300D01*
X51294681Y-40365300D01*
X51385420Y-40413802D01*
X51505118Y-40450112D01*
X51594600Y-40458925D01*
X51594601Y-41275000D01*
X50165000Y-41275000D01*
X50041118Y-41287201D01*
X49921996Y-41323336D01*
X49812213Y-41382017D01*
X49715987Y-41460987D01*
X49637017Y-41557213D01*
X49578336Y-41666996D01*
X49542201Y-41786118D01*
X49530000Y-41910000D01*
X49530000Y-47625000D01*
X49542201Y-47748882D01*
X49578336Y-47868004D01*
X49637017Y-47977787D01*
X49715987Y-48074013D01*
X49812213Y-48152983D01*
X49921996Y-48211664D01*
X50041118Y-48247799D01*
X50165000Y-48260000D01*
X61595000Y-48260000D01*
X61718882Y-48247799D01*
X61838004Y-48211664D01*
X61947787Y-48152983D01*
X62044013Y-48074013D01*
X62122983Y-47977787D01*
X62181664Y-47868004D01*
X62217799Y-47748882D01*
X62230000Y-47625000D01*
X62230000Y-44354839D01*
X62247651Y-44353100D01*
X62247652Y-44353100D01*
X62414399Y-44336677D01*
X62628347Y-44271776D01*
X62825523Y-44166384D01*
X62998349Y-44024549D01*
X63033896Y-43981235D01*
X66803141Y-40211991D01*
X66846449Y-40176449D01*
X66988284Y-40003623D01*
X67093676Y-39806447D01*
X67158577Y-39592499D01*
X67175000Y-39425752D01*
X67175000Y-39425745D01*
X67180490Y-39370001D01*
X67175000Y-39314257D01*
X67175000Y-26598751D01*
X67180491Y-26542999D01*
X67158577Y-26320501D01*
X67093676Y-26106553D01*
X67087883Y-26095715D01*
X66988284Y-25909377D01*
X66846449Y-25736551D01*
X66803141Y-25701009D01*
X62853000Y-21750869D01*
X62853000Y-19754167D01*
X62901508Y-19594256D01*
X62918572Y-19421002D01*
X62918572Y-18170998D01*
X62901508Y-17997744D01*
X62850972Y-17831148D01*
X62768905Y-17677613D01*
X62658462Y-17543038D01*
X62523887Y-17432595D01*
X62370352Y-17350528D01*
X62203756Y-17299992D01*
X62030502Y-17282928D01*
X61405498Y-17282928D01*
X61232244Y-17299992D01*
X61065648Y-17350528D01*
X60912113Y-17432595D01*
X60777538Y-17543038D01*
X60769500Y-17552832D01*
X60761462Y-17543038D01*
X60626887Y-17432595D01*
X60473352Y-17350528D01*
X60306756Y-17299992D01*
X60133502Y-17282928D01*
X59508498Y-17282928D01*
X59335244Y-17299992D01*
X59168648Y-17350528D01*
X59015113Y-17432595D01*
X58880538Y-17543038D01*
X58770095Y-17677613D01*
X58688028Y-17831148D01*
X58637492Y-17997744D01*
X58620428Y-18170998D01*
X58620428Y-19421002D01*
X58637492Y-19594256D01*
X58688028Y-19760852D01*
X58770095Y-19914387D01*
X58880538Y-20048962D01*
X59015113Y-20159405D01*
X59168648Y-20241472D01*
X59335244Y-20292008D01*
X59508498Y-20309072D01*
X60133502Y-20309072D01*
X60306756Y-20292008D01*
X60473352Y-20241472D01*
X60583001Y-20182863D01*
X60583000Y-22165248D01*
X60577509Y-22221000D01*
X60599423Y-22443498D01*
X60664324Y-22657446D01*
X60769716Y-22854623D01*
X60911551Y-23027449D01*
X60954865Y-23062996D01*
X64905001Y-27013133D01*
X64905000Y-38899868D01*
X62166410Y-41638459D01*
X62122983Y-41557213D01*
X62044013Y-41460987D01*
X61947787Y-41382017D01*
X61838004Y-41323336D01*
X61718882Y-41287201D01*
X61595000Y-41275000D01*
X53864600Y-41275000D01*
X53864600Y-40458925D01*
X53954082Y-40450112D01*
X54073780Y-40413802D01*
X54184094Y-40354837D01*
X54280785Y-40275485D01*
X54360137Y-40178794D01*
X54419102Y-40068480D01*
X54455412Y-39948782D01*
X54467672Y-39824300D01*
X54467672Y-38624300D01*
X54455412Y-38499818D01*
X54419102Y-38380120D01*
X54360137Y-38269806D01*
X54280785Y-38173115D01*
X54184094Y-38093763D01*
X54073780Y-38034798D01*
X53954082Y-37998488D01*
X53829600Y-37986228D01*
X51629600Y-37986228D01*
X51505118Y-37998488D01*
X51385420Y-38034798D01*
X51275106Y-38093763D01*
X51273233Y-38095300D01*
X47268632Y-38095300D01*
X46398930Y-37225599D01*
X46361831Y-37156192D01*
X46257606Y-37029194D01*
X46130608Y-36924969D01*
X45985716Y-36847522D01*
X45828500Y-36799831D01*
X45725186Y-36789656D01*
X45687498Y-36778223D01*
X45465000Y-36756309D01*
X45242502Y-36778223D01*
X45204814Y-36789656D01*
X45101500Y-36799831D01*
X44944284Y-36847522D01*
X44799392Y-36924969D01*
X44672394Y-37029194D01*
X44640000Y-37068666D01*
X44607606Y-37029194D01*
X44480608Y-36924969D01*
X44335716Y-36847522D01*
X44179882Y-36800250D01*
X44533288Y-36446844D01*
X44659408Y-36379431D01*
X44786406Y-36275206D01*
X44890631Y-36148208D01*
X44968078Y-36003316D01*
X44975601Y-35978517D01*
X45047476Y-35844047D01*
X45112377Y-35630099D01*
X45134291Y-35407600D01*
X45128800Y-35351848D01*
X45128800Y-32830525D01*
X45133902Y-32820980D01*
X45170212Y-32701282D01*
X45182472Y-32576800D01*
X45182472Y-32499859D01*
X45212977Y-32399298D01*
X45234891Y-32176800D01*
X45227968Y-32106506D01*
X45289906Y-32157337D01*
X45400220Y-32216302D01*
X45519918Y-32252612D01*
X45644400Y-32264872D01*
X45704117Y-32264872D01*
X45842939Y-32403694D01*
X45874567Y-32442233D01*
X46028360Y-32568447D01*
X46203820Y-32662232D01*
X46394205Y-32719985D01*
X46592200Y-32739486D01*
X46641808Y-32734600D01*
X50241245Y-32734600D01*
X50032006Y-32943839D01*
X49993467Y-32975467D01*
X49867253Y-33129260D01*
X49806248Y-33243394D01*
X49773468Y-33304721D01*
X49715715Y-33495106D01*
X49696214Y-33693100D01*
X49701100Y-33742708D01*
X49701101Y-35904083D01*
X49696214Y-35953700D01*
X49715715Y-36151694D01*
X49773468Y-36342079D01*
X49837180Y-36461276D01*
X49867254Y-36517540D01*
X49993468Y-36671333D01*
X50032001Y-36702956D01*
X50330139Y-37001094D01*
X50361767Y-37039633D01*
X50515560Y-37165847D01*
X50691020Y-37259632D01*
X50702710Y-37263178D01*
X50881405Y-37317385D01*
X51079400Y-37336886D01*
X51129008Y-37332000D01*
X55191528Y-37332000D01*
X55191528Y-39844300D01*
X55203788Y-39968782D01*
X55240098Y-40088480D01*
X55299063Y-40198794D01*
X55378415Y-40295485D01*
X55475106Y-40374837D01*
X55585420Y-40433802D01*
X55705118Y-40470112D01*
X55829600Y-40482372D01*
X62229600Y-40482372D01*
X62354082Y-40470112D01*
X62473780Y-40433802D01*
X62584094Y-40374837D01*
X62680785Y-40295485D01*
X62760137Y-40198794D01*
X62819102Y-40088480D01*
X62855412Y-39968782D01*
X62867672Y-39844300D01*
X62867672Y-34044300D01*
X62855412Y-33919818D01*
X62819102Y-33800120D01*
X62760137Y-33689806D01*
X62680785Y-33593115D01*
X62584094Y-33513763D01*
X62473780Y-33454798D01*
X62354082Y-33418488D01*
X62229600Y-33406228D01*
X60164600Y-33406228D01*
X60164600Y-32996721D01*
X60201118Y-33007799D01*
X60325000Y-33020000D01*
X63500000Y-33020000D01*
X63623882Y-33007799D01*
X63743004Y-32971664D01*
X63852787Y-32912983D01*
X63949013Y-32834013D01*
X64027983Y-32737787D01*
X64086664Y-32628004D01*
X64122799Y-32508882D01*
X64135000Y-32385000D01*
X64135000Y-29210000D01*
X64122799Y-29086118D01*
X64086664Y-28966996D01*
X64027983Y-28857213D01*
X63949013Y-28760987D01*
X63852787Y-28682017D01*
X63743004Y-28623336D01*
X63623882Y-28587201D01*
X63500000Y-28575000D01*
X62730000Y-28575000D01*
X62730000Y-27868752D01*
X62735491Y-27813000D01*
X62713577Y-27590501D01*
X62648676Y-27376553D01*
X62543284Y-27179377D01*
X62527918Y-27160654D01*
X62401449Y-27006551D01*
X62358141Y-26971009D01*
X57785000Y-22397869D01*
X57785000Y-20091196D01*
X57836462Y-20048962D01*
X57946905Y-19914387D01*
X58028972Y-19760852D01*
X58079508Y-19594256D01*
X58096572Y-19421002D01*
X58096572Y-18170998D01*
X58079508Y-17997744D01*
X58028972Y-17831148D01*
X57946905Y-17677613D01*
X57836462Y-17543038D01*
X57785000Y-17500804D01*
X57785000Y-16764000D01*
X57772799Y-16640118D01*
X57736664Y-16520996D01*
X57677983Y-16411213D01*
X57599013Y-16314987D01*
X57502787Y-16236017D01*
X57393004Y-16177336D01*
X57273882Y-16141201D01*
X57150000Y-16129000D01*
X53396320Y-16129000D01*
X53362634Y-16101355D01*
X53086848Y-15953945D01*
X52787603Y-15863170D01*
X52476400Y-15832519D01*
X52165196Y-15863170D01*
X51865951Y-15953945D01*
X51590165Y-16101355D01*
X51348437Y-16299737D01*
X51150055Y-16541466D01*
X51002645Y-16817252D01*
X50911870Y-17116497D01*
X50888900Y-17349715D01*
X50888900Y-17600686D01*
X50911870Y-17833904D01*
X51002645Y-18133149D01*
X51150055Y-18408935D01*
X51348437Y-18650663D01*
X51435000Y-18721703D01*
X51435000Y-19460069D01*
X51432182Y-19463503D01*
X51352425Y-19612717D01*
X51303312Y-19774623D01*
X51286728Y-19943000D01*
X51286728Y-20443000D01*
X51303312Y-20611377D01*
X51352425Y-20773283D01*
X51432182Y-20922497D01*
X51435501Y-20926541D01*
X51432393Y-20927484D01*
X51416157Y-20936162D01*
X51299100Y-20947691D01*
X51141884Y-20995382D01*
X50996992Y-21072829D01*
X50954477Y-21107720D01*
X50898787Y-21062017D01*
X50789004Y-21003336D01*
X50669882Y-20967201D01*
X50546000Y-20955000D01*
X50400195Y-20955000D01*
X50376100Y-20947691D01*
X50212600Y-20931588D01*
X49812600Y-20931588D01*
X49649100Y-20947691D01*
X49625005Y-20955000D01*
X48256989Y-20955000D01*
X48262818Y-20947897D01*
X48342575Y-20798683D01*
X48391688Y-20636777D01*
X48397616Y-20576586D01*
X48438777Y-20440899D01*
X48455200Y-20274152D01*
X48455200Y-19102803D01*
X48473382Y-19101012D01*
X48593080Y-19064702D01*
X48703394Y-19005737D01*
X48800085Y-18926385D01*
X48879437Y-18829694D01*
X48938402Y-18719380D01*
X48974712Y-18599682D01*
X48986972Y-18475200D01*
X48986972Y-16475200D01*
X48974712Y-16350718D01*
X48938402Y-16231020D01*
X48879437Y-16120706D01*
X48800085Y-16024015D01*
X48703394Y-15944663D01*
X48593080Y-15885698D01*
X48473382Y-15849388D01*
X48348900Y-15837128D01*
X47354903Y-15837128D01*
X47273103Y-15769996D01*
X47075927Y-15664604D01*
X46861979Y-15599703D01*
X46695232Y-15583280D01*
X46695231Y-15583280D01*
X46639480Y-15577789D01*
X46583729Y-15583280D01*
X34960971Y-15583280D01*
X34864162Y-15465318D01*
X34729587Y-15354875D01*
X34576052Y-15272808D01*
X34409456Y-15222272D01*
X34236202Y-15205208D01*
X33611198Y-15205208D01*
X33437944Y-15222272D01*
X33271348Y-15272808D01*
X33117813Y-15354875D01*
X33020000Y-15435148D01*
X33020000Y-14605000D01*
X33007799Y-14481118D01*
X32971664Y-14361996D01*
X32912983Y-14252213D01*
X32834013Y-14155987D01*
X32737787Y-14077017D01*
X32628004Y-14018336D01*
X32508882Y-13982201D01*
X32385000Y-13970000D01*
X17780000Y-13970000D01*
X17656118Y-13982201D01*
X17536996Y-14018336D01*
X17427213Y-14077017D01*
X17330987Y-14155987D01*
X17252017Y-14252213D01*
X17193336Y-14361996D01*
X17157201Y-14481118D01*
X17145000Y-14605000D01*
X17145000Y-20828000D01*
X17157201Y-20951882D01*
X17193336Y-21071004D01*
X17252017Y-21180787D01*
X17330987Y-21277013D01*
X17427213Y-21355983D01*
X17536996Y-21414664D01*
X17656118Y-21450799D01*
X17780000Y-21463000D01*
X32385000Y-21463000D01*
X32508882Y-21450799D01*
X32628004Y-21414664D01*
X32737787Y-21355983D01*
X32834013Y-21277013D01*
X32912983Y-21180787D01*
X32971664Y-21071004D01*
X33007799Y-20951882D01*
X33020000Y-20828000D01*
X33020000Y-18001412D01*
X33117813Y-18081685D01*
X33271348Y-18163752D01*
X33437944Y-18214288D01*
X33611198Y-18231352D01*
X34236202Y-18231352D01*
X34409456Y-18214288D01*
X34576052Y-18163752D01*
X34729587Y-18081685D01*
X34864162Y-17971242D01*
X34960971Y-17853280D01*
X45805828Y-17853280D01*
X45805828Y-18475200D01*
X45818088Y-18599682D01*
X45854398Y-18719380D01*
X45913363Y-18829694D01*
X45992715Y-18926385D01*
X46089406Y-19005737D01*
X46185200Y-19056941D01*
X46185200Y-20274151D01*
X46201623Y-20440898D01*
X46242783Y-20576585D01*
X46248712Y-20636777D01*
X46297825Y-20798683D01*
X46377582Y-20947897D01*
X46383411Y-20955000D01*
X45720000Y-20955000D01*
X45596118Y-20967201D01*
X45593000Y-20968147D01*
X45593000Y-19812000D01*
X45580799Y-19688118D01*
X45544664Y-19568996D01*
X45485983Y-19459213D01*
X45407013Y-19362987D01*
X45310787Y-19284017D01*
X45201004Y-19225336D01*
X45081882Y-19189201D01*
X44958000Y-19177000D01*
X40386000Y-19177000D01*
X40262118Y-19189201D01*
X40142996Y-19225336D01*
X40033213Y-19284017D01*
X39936987Y-19362987D01*
X39858017Y-19459213D01*
X39799336Y-19568996D01*
X39763201Y-19688118D01*
X39751000Y-19812000D01*
X39751000Y-22352000D01*
X39763201Y-22475882D01*
X39799336Y-22595004D01*
X39858017Y-22704787D01*
X39936987Y-22801013D01*
X39954013Y-22814986D01*
X39766430Y-22871888D01*
X39328360Y-22871888D01*
X39174615Y-22887031D01*
X39026778Y-22931876D01*
X38890531Y-23004702D01*
X38771109Y-23102709D01*
X38673102Y-23222131D01*
X38600276Y-23358378D01*
X38558066Y-23497530D01*
X38191401Y-23130865D01*
X38159773Y-23092327D01*
X38005980Y-22966113D01*
X37830520Y-22872328D01*
X37640134Y-22814575D01*
X37491748Y-22799960D01*
X37442140Y-22795074D01*
X37392532Y-22799960D01*
X35153752Y-22799960D01*
X35005366Y-22814575D01*
X34816430Y-22871888D01*
X34378360Y-22871888D01*
X34224615Y-22887031D01*
X34076778Y-22931876D01*
X33940531Y-23004702D01*
X33821109Y-23102709D01*
X33723102Y-23222131D01*
X33650276Y-23358378D01*
X33605431Y-23506215D01*
X33590288Y-23659960D01*
X33590288Y-23959960D01*
X33601122Y-24069960D01*
X32737316Y-24069960D01*
X31457861Y-22790506D01*
X31426233Y-22751967D01*
X31272440Y-22625753D01*
X31096980Y-22531968D01*
X30906594Y-22474215D01*
X30758208Y-22459600D01*
X30708600Y-22454714D01*
X30658992Y-22459600D01*
X30108999Y-22459600D01*
X30035516Y-22420322D01*
X29878300Y-22372631D01*
X29714800Y-22356528D01*
X29314800Y-22356528D01*
X29151300Y-22372631D01*
X28994084Y-22420322D01*
X28849192Y-22497769D01*
X28722194Y-22601994D01*
X28617969Y-22728992D01*
X28540522Y-22873884D01*
X28492831Y-23031100D01*
X28476728Y-23194600D01*
X28476728Y-23744600D01*
X28492831Y-23908100D01*
X28540522Y-24065316D01*
X28617969Y-24210208D01*
X28722194Y-24337206D01*
X28849192Y-24441431D01*
X28994084Y-24518878D01*
X29151300Y-24566569D01*
X29314800Y-24582672D01*
X29714800Y-24582672D01*
X29878300Y-24566569D01*
X30035516Y-24518878D01*
X30108999Y-24479600D01*
X30290245Y-24479600D01*
X31191244Y-25380600D01*
X30082599Y-25380600D01*
X30009116Y-25341322D01*
X29851900Y-25293631D01*
X29688400Y-25277528D01*
X29288400Y-25277528D01*
X29124900Y-25293631D01*
X28967684Y-25341322D01*
X28822792Y-25418769D01*
X28695794Y-25522994D01*
X28663400Y-25562466D01*
X28631006Y-25522994D01*
X28504008Y-25418769D01*
X28359116Y-25341322D01*
X28201900Y-25293631D01*
X28098588Y-25283456D01*
X28060899Y-25272023D01*
X27894152Y-25255600D01*
X22225000Y-25255600D01*
X22225000Y-23424032D01*
X22211375Y-23293197D01*
X22173911Y-23174487D01*
X22114008Y-23065367D01*
X22033967Y-22970029D01*
X21936865Y-22892139D01*
X21826433Y-22834689D01*
X21706915Y-22799888D01*
X21582904Y-22789072D01*
X15232904Y-22860040D01*
X15116118Y-22872201D01*
X14996996Y-22908336D01*
X14887213Y-22967017D01*
X14790987Y-23045987D01*
X14712017Y-23142213D01*
X14653336Y-23251996D01*
X14617201Y-23371118D01*
X14605000Y-23495000D01*
X13360000Y-23495000D01*
X13360000Y-13360000D01*
X67920000Y-13360000D01*
X67920001Y-48227572D01*
%TA.AperFunction,Conductor*%
D25*
G36*
X67920001Y-48227572D02*
G01*
X67920000Y-48227582D01*
X67920001Y-49505000D01*
X13360000Y-49505000D01*
X13360000Y-23495000D01*
X14605000Y-23495000D01*
X14605000Y-34925000D01*
X14618625Y-35055835D01*
X14656089Y-35174545D01*
X14715992Y-35283665D01*
X14796033Y-35379003D01*
X14893135Y-35456893D01*
X15003567Y-35514343D01*
X15123085Y-35549144D01*
X15247096Y-35559960D01*
X21597096Y-35488992D01*
X21713882Y-35476831D01*
X21833004Y-35440696D01*
X21942787Y-35382015D01*
X22039013Y-35303045D01*
X22117983Y-35206819D01*
X22176664Y-35097036D01*
X22212799Y-34977914D01*
X22225000Y-34854032D01*
X22225000Y-27525600D01*
X27894152Y-27525600D01*
X28060899Y-27509177D01*
X28098588Y-27497744D01*
X28201900Y-27487569D01*
X28359116Y-27439878D01*
X28504008Y-27362431D01*
X28585001Y-27295962D01*
X28585000Y-28041770D01*
X28544095Y-28091613D01*
X28462028Y-28245148D01*
X28411492Y-28411744D01*
X28394428Y-28584998D01*
X28394428Y-29835002D01*
X28411492Y-30008256D01*
X28462028Y-30174852D01*
X28544095Y-30328387D01*
X28654538Y-30462962D01*
X28789113Y-30573405D01*
X28942648Y-30655472D01*
X29109244Y-30706008D01*
X29282498Y-30723072D01*
X29907502Y-30723072D01*
X30080756Y-30706008D01*
X30247352Y-30655472D01*
X30400887Y-30573405D01*
X30535462Y-30462962D01*
X30645905Y-30328387D01*
X30727972Y-30174852D01*
X30778508Y-30008256D01*
X30795572Y-29835002D01*
X30795572Y-28584998D01*
X30778508Y-28411744D01*
X30727972Y-28245148D01*
X30645905Y-28091613D01*
X30605000Y-28041770D01*
X30605000Y-27400600D01*
X35113112Y-27400600D01*
X35162720Y-27405486D01*
X35360714Y-27385985D01*
X35391807Y-27376553D01*
X35551100Y-27328232D01*
X35626309Y-27288032D01*
X36028360Y-27288032D01*
X36104481Y-27280535D01*
X36104480Y-42068672D01*
X36099594Y-42118280D01*
X36119095Y-42316274D01*
X36148195Y-42412202D01*
X36176848Y-42506659D01*
X36270633Y-42682120D01*
X36396847Y-42835913D01*
X36435386Y-42867541D01*
X37426943Y-43859099D01*
X37458567Y-43897633D01*
X37612360Y-44023847D01*
X37787820Y-44117632D01*
X37978205Y-44175385D01*
X38176200Y-44194886D01*
X38225808Y-44190000D01*
X40437992Y-44190000D01*
X40487600Y-44194886D01*
X40685594Y-44175385D01*
X40715266Y-44166384D01*
X40875980Y-44117632D01*
X41051440Y-44023847D01*
X41205233Y-43897633D01*
X41236861Y-43859094D01*
X42614494Y-42481461D01*
X42653033Y-42449833D01*
X42779247Y-42296040D01*
X42873032Y-42120580D01*
X42930785Y-41930194D01*
X42945400Y-41781808D01*
X42945400Y-41781806D01*
X42950286Y-41732201D01*
X42949660Y-41725847D01*
X43088875Y-41586632D01*
X43205400Y-41412240D01*
X43321925Y-41586632D01*
X43528768Y-41793475D01*
X43771989Y-41955990D01*
X44042242Y-42067932D01*
X44329140Y-42125000D01*
X44621660Y-42125000D01*
X44908558Y-42067932D01*
X45178811Y-41955990D01*
X45422032Y-41793475D01*
X45628875Y-41586632D01*
X45791390Y-41343411D01*
X45903332Y-41073158D01*
X45960400Y-40786260D01*
X45960400Y-40493740D01*
X45903332Y-40206842D01*
X45791390Y-39936589D01*
X45628875Y-39693368D01*
X45422032Y-39486525D01*
X45178811Y-39324010D01*
X44950000Y-39229234D01*
X44950000Y-38986931D01*
X45956508Y-39993440D01*
X45992051Y-40036749D01*
X46164877Y-40178584D01*
X46362053Y-40283976D01*
X46576001Y-40348877D01*
X46636515Y-40354837D01*
X46798500Y-40370791D01*
X46854252Y-40365300D01*
X51294681Y-40365300D01*
X51385420Y-40413802D01*
X51505118Y-40450112D01*
X51594600Y-40458925D01*
X51594601Y-41275000D01*
X50165000Y-41275000D01*
X50041118Y-41287201D01*
X49921996Y-41323336D01*
X49812213Y-41382017D01*
X49715987Y-41460987D01*
X49637017Y-41557213D01*
X49578336Y-41666996D01*
X49542201Y-41786118D01*
X49530000Y-41910000D01*
X49530000Y-47625000D01*
X49542201Y-47748882D01*
X49578336Y-47868004D01*
X49637017Y-47977787D01*
X49715987Y-48074013D01*
X49812213Y-48152983D01*
X49921996Y-48211664D01*
X50041118Y-48247799D01*
X50165000Y-48260000D01*
X61595000Y-48260000D01*
X61718882Y-48247799D01*
X61838004Y-48211664D01*
X61947787Y-48152983D01*
X62044013Y-48074013D01*
X62122983Y-47977787D01*
X62181664Y-47868004D01*
X62217799Y-47748882D01*
X62230000Y-47625000D01*
X62230000Y-44354839D01*
X62247651Y-44353100D01*
X62247652Y-44353100D01*
X62414399Y-44336677D01*
X62628347Y-44271776D01*
X62825523Y-44166384D01*
X62998349Y-44024549D01*
X63033896Y-43981235D01*
X66803141Y-40211991D01*
X66846449Y-40176449D01*
X66988284Y-40003623D01*
X67093676Y-39806447D01*
X67158577Y-39592499D01*
X67175000Y-39425752D01*
X67175000Y-39425745D01*
X67180490Y-39370001D01*
X67175000Y-39314257D01*
X67175000Y-26598751D01*
X67180491Y-26542999D01*
X67158577Y-26320501D01*
X67093676Y-26106553D01*
X67087883Y-26095715D01*
X66988284Y-25909377D01*
X66846449Y-25736551D01*
X66803141Y-25701009D01*
X62853000Y-21750869D01*
X62853000Y-19754167D01*
X62901508Y-19594256D01*
X62918572Y-19421002D01*
X62918572Y-18170998D01*
X62901508Y-17997744D01*
X62850972Y-17831148D01*
X62768905Y-17677613D01*
X62658462Y-17543038D01*
X62523887Y-17432595D01*
X62370352Y-17350528D01*
X62203756Y-17299992D01*
X62030502Y-17282928D01*
X61405498Y-17282928D01*
X61232244Y-17299992D01*
X61065648Y-17350528D01*
X60912113Y-17432595D01*
X60777538Y-17543038D01*
X60769500Y-17552832D01*
X60761462Y-17543038D01*
X60626887Y-17432595D01*
X60473352Y-17350528D01*
X60306756Y-17299992D01*
X60133502Y-17282928D01*
X59508498Y-17282928D01*
X59335244Y-17299992D01*
X59168648Y-17350528D01*
X59015113Y-17432595D01*
X58880538Y-17543038D01*
X58770095Y-17677613D01*
X58688028Y-17831148D01*
X58637492Y-17997744D01*
X58620428Y-18170998D01*
X58620428Y-19421002D01*
X58637492Y-19594256D01*
X58688028Y-19760852D01*
X58770095Y-19914387D01*
X58880538Y-20048962D01*
X59015113Y-20159405D01*
X59168648Y-20241472D01*
X59335244Y-20292008D01*
X59508498Y-20309072D01*
X60133502Y-20309072D01*
X60306756Y-20292008D01*
X60473352Y-20241472D01*
X60583001Y-20182863D01*
X60583000Y-22165248D01*
X60577509Y-22221000D01*
X60599423Y-22443498D01*
X60664324Y-22657446D01*
X60769716Y-22854623D01*
X60911551Y-23027449D01*
X60954865Y-23062996D01*
X64905001Y-27013133D01*
X64905000Y-38899868D01*
X62166410Y-41638459D01*
X62122983Y-41557213D01*
X62044013Y-41460987D01*
X61947787Y-41382017D01*
X61838004Y-41323336D01*
X61718882Y-41287201D01*
X61595000Y-41275000D01*
X53864600Y-41275000D01*
X53864600Y-40458925D01*
X53954082Y-40450112D01*
X54073780Y-40413802D01*
X54184094Y-40354837D01*
X54280785Y-40275485D01*
X54360137Y-40178794D01*
X54419102Y-40068480D01*
X54455412Y-39948782D01*
X54467672Y-39824300D01*
X54467672Y-38624300D01*
X54455412Y-38499818D01*
X54419102Y-38380120D01*
X54360137Y-38269806D01*
X54280785Y-38173115D01*
X54184094Y-38093763D01*
X54073780Y-38034798D01*
X53954082Y-37998488D01*
X53829600Y-37986228D01*
X51629600Y-37986228D01*
X51505118Y-37998488D01*
X51385420Y-38034798D01*
X51275106Y-38093763D01*
X51273233Y-38095300D01*
X47268632Y-38095300D01*
X46398930Y-37225599D01*
X46361831Y-37156192D01*
X46257606Y-37029194D01*
X46130608Y-36924969D01*
X45985716Y-36847522D01*
X45828500Y-36799831D01*
X45725186Y-36789656D01*
X45687498Y-36778223D01*
X45465000Y-36756309D01*
X45242502Y-36778223D01*
X45204814Y-36789656D01*
X45101500Y-36799831D01*
X44944284Y-36847522D01*
X44799392Y-36924969D01*
X44672394Y-37029194D01*
X44640000Y-37068666D01*
X44607606Y-37029194D01*
X44480608Y-36924969D01*
X44335716Y-36847522D01*
X44179882Y-36800250D01*
X44533288Y-36446844D01*
X44659408Y-36379431D01*
X44786406Y-36275206D01*
X44890631Y-36148208D01*
X44968078Y-36003316D01*
X44975601Y-35978517D01*
X45047476Y-35844047D01*
X45112377Y-35630099D01*
X45134291Y-35407600D01*
X45128800Y-35351848D01*
X45128800Y-32830525D01*
X45133902Y-32820980D01*
X45170212Y-32701282D01*
X45182472Y-32576800D01*
X45182472Y-32499859D01*
X45212977Y-32399298D01*
X45234891Y-32176800D01*
X45227968Y-32106506D01*
X45289906Y-32157337D01*
X45400220Y-32216302D01*
X45519918Y-32252612D01*
X45644400Y-32264872D01*
X45704117Y-32264872D01*
X45842939Y-32403694D01*
X45874567Y-32442233D01*
X46028360Y-32568447D01*
X46203820Y-32662232D01*
X46394205Y-32719985D01*
X46592200Y-32739486D01*
X46641808Y-32734600D01*
X50241245Y-32734600D01*
X50032006Y-32943839D01*
X49993467Y-32975467D01*
X49867253Y-33129260D01*
X49806248Y-33243394D01*
X49773468Y-33304721D01*
X49715715Y-33495106D01*
X49696214Y-33693100D01*
X49701100Y-33742708D01*
X49701101Y-35904083D01*
X49696214Y-35953700D01*
X49715715Y-36151694D01*
X49773468Y-36342079D01*
X49837180Y-36461276D01*
X49867254Y-36517540D01*
X49993468Y-36671333D01*
X50032001Y-36702956D01*
X50330139Y-37001094D01*
X50361767Y-37039633D01*
X50515560Y-37165847D01*
X50691020Y-37259632D01*
X50702710Y-37263178D01*
X50881405Y-37317385D01*
X51079400Y-37336886D01*
X51129008Y-37332000D01*
X55191528Y-37332000D01*
X55191528Y-39844300D01*
X55203788Y-39968782D01*
X55240098Y-40088480D01*
X55299063Y-40198794D01*
X55378415Y-40295485D01*
X55475106Y-40374837D01*
X55585420Y-40433802D01*
X55705118Y-40470112D01*
X55829600Y-40482372D01*
X62229600Y-40482372D01*
X62354082Y-40470112D01*
X62473780Y-40433802D01*
X62584094Y-40374837D01*
X62680785Y-40295485D01*
X62760137Y-40198794D01*
X62819102Y-40088480D01*
X62855412Y-39968782D01*
X62867672Y-39844300D01*
X62867672Y-34044300D01*
X62855412Y-33919818D01*
X62819102Y-33800120D01*
X62760137Y-33689806D01*
X62680785Y-33593115D01*
X62584094Y-33513763D01*
X62473780Y-33454798D01*
X62354082Y-33418488D01*
X62229600Y-33406228D01*
X60164600Y-33406228D01*
X60164600Y-32996721D01*
X60201118Y-33007799D01*
X60325000Y-33020000D01*
X63500000Y-33020000D01*
X63623882Y-33007799D01*
X63743004Y-32971664D01*
X63852787Y-32912983D01*
X63949013Y-32834013D01*
X64027983Y-32737787D01*
X64086664Y-32628004D01*
X64122799Y-32508882D01*
X64135000Y-32385000D01*
X64135000Y-29210000D01*
X64122799Y-29086118D01*
X64086664Y-28966996D01*
X64027983Y-28857213D01*
X63949013Y-28760987D01*
X63852787Y-28682017D01*
X63743004Y-28623336D01*
X63623882Y-28587201D01*
X63500000Y-28575000D01*
X62730000Y-28575000D01*
X62730000Y-27868752D01*
X62735491Y-27813000D01*
X62713577Y-27590501D01*
X62648676Y-27376553D01*
X62543284Y-27179377D01*
X62527918Y-27160654D01*
X62401449Y-27006551D01*
X62358141Y-26971009D01*
X57785000Y-22397869D01*
X57785000Y-20091196D01*
X57836462Y-20048962D01*
X57946905Y-19914387D01*
X58028972Y-19760852D01*
X58079508Y-19594256D01*
X58096572Y-19421002D01*
X58096572Y-18170998D01*
X58079508Y-17997744D01*
X58028972Y-17831148D01*
X57946905Y-17677613D01*
X57836462Y-17543038D01*
X57785000Y-17500804D01*
X57785000Y-16764000D01*
X57772799Y-16640118D01*
X57736664Y-16520996D01*
X57677983Y-16411213D01*
X57599013Y-16314987D01*
X57502787Y-16236017D01*
X57393004Y-16177336D01*
X57273882Y-16141201D01*
X57150000Y-16129000D01*
X53396320Y-16129000D01*
X53362634Y-16101355D01*
X53086848Y-15953945D01*
X52787603Y-15863170D01*
X52476400Y-15832519D01*
X52165196Y-15863170D01*
X51865951Y-15953945D01*
X51590165Y-16101355D01*
X51348437Y-16299737D01*
X51150055Y-16541466D01*
X51002645Y-16817252D01*
X50911870Y-17116497D01*
X50888900Y-17349715D01*
X50888900Y-17600686D01*
X50911870Y-17833904D01*
X51002645Y-18133149D01*
X51150055Y-18408935D01*
X51348437Y-18650663D01*
X51435000Y-18721703D01*
X51435000Y-19460069D01*
X51432182Y-19463503D01*
X51352425Y-19612717D01*
X51303312Y-19774623D01*
X51286728Y-19943000D01*
X51286728Y-20443000D01*
X51303312Y-20611377D01*
X51352425Y-20773283D01*
X51432182Y-20922497D01*
X51435501Y-20926541D01*
X51432393Y-20927484D01*
X51416157Y-20936162D01*
X51299100Y-20947691D01*
X51141884Y-20995382D01*
X50996992Y-21072829D01*
X50954477Y-21107720D01*
X50898787Y-21062017D01*
X50789004Y-21003336D01*
X50669882Y-20967201D01*
X50546000Y-20955000D01*
X50400195Y-20955000D01*
X50376100Y-20947691D01*
X50212600Y-20931588D01*
X49812600Y-20931588D01*
X49649100Y-20947691D01*
X49625005Y-20955000D01*
X48256989Y-20955000D01*
X48262818Y-20947897D01*
X48342575Y-20798683D01*
X48391688Y-20636777D01*
X48397616Y-20576586D01*
X48438777Y-20440899D01*
X48455200Y-20274152D01*
X48455200Y-19102803D01*
X48473382Y-19101012D01*
X48593080Y-19064702D01*
X48703394Y-19005737D01*
X48800085Y-18926385D01*
X48879437Y-18829694D01*
X48938402Y-18719380D01*
X48974712Y-18599682D01*
X48986972Y-18475200D01*
X48986972Y-16475200D01*
X48974712Y-16350718D01*
X48938402Y-16231020D01*
X48879437Y-16120706D01*
X48800085Y-16024015D01*
X48703394Y-15944663D01*
X48593080Y-15885698D01*
X48473382Y-15849388D01*
X48348900Y-15837128D01*
X47354903Y-15837128D01*
X47273103Y-15769996D01*
X47075927Y-15664604D01*
X46861979Y-15599703D01*
X46695232Y-15583280D01*
X46695231Y-15583280D01*
X46639480Y-15577789D01*
X46583729Y-15583280D01*
X34960971Y-15583280D01*
X34864162Y-15465318D01*
X34729587Y-15354875D01*
X34576052Y-15272808D01*
X34409456Y-15222272D01*
X34236202Y-15205208D01*
X33611198Y-15205208D01*
X33437944Y-15222272D01*
X33271348Y-15272808D01*
X33117813Y-15354875D01*
X33020000Y-15435148D01*
X33020000Y-14605000D01*
X33007799Y-14481118D01*
X32971664Y-14361996D01*
X32912983Y-14252213D01*
X32834013Y-14155987D01*
X32737787Y-14077017D01*
X32628004Y-14018336D01*
X32508882Y-13982201D01*
X32385000Y-13970000D01*
X17780000Y-13970000D01*
X17656118Y-13982201D01*
X17536996Y-14018336D01*
X17427213Y-14077017D01*
X17330987Y-14155987D01*
X17252017Y-14252213D01*
X17193336Y-14361996D01*
X17157201Y-14481118D01*
X17145000Y-14605000D01*
X17145000Y-20828000D01*
X17157201Y-20951882D01*
X17193336Y-21071004D01*
X17252017Y-21180787D01*
X17330987Y-21277013D01*
X17427213Y-21355983D01*
X17536996Y-21414664D01*
X17656118Y-21450799D01*
X17780000Y-21463000D01*
X32385000Y-21463000D01*
X32508882Y-21450799D01*
X32628004Y-21414664D01*
X32737787Y-21355983D01*
X32834013Y-21277013D01*
X32912983Y-21180787D01*
X32971664Y-21071004D01*
X33007799Y-20951882D01*
X33020000Y-20828000D01*
X33020000Y-18001412D01*
X33117813Y-18081685D01*
X33271348Y-18163752D01*
X33437944Y-18214288D01*
X33611198Y-18231352D01*
X34236202Y-18231352D01*
X34409456Y-18214288D01*
X34576052Y-18163752D01*
X34729587Y-18081685D01*
X34864162Y-17971242D01*
X34960971Y-17853280D01*
X45805828Y-17853280D01*
X45805828Y-18475200D01*
X45818088Y-18599682D01*
X45854398Y-18719380D01*
X45913363Y-18829694D01*
X45992715Y-18926385D01*
X46089406Y-19005737D01*
X46185200Y-19056941D01*
X46185200Y-20274151D01*
X46201623Y-20440898D01*
X46242783Y-20576585D01*
X46248712Y-20636777D01*
X46297825Y-20798683D01*
X46377582Y-20947897D01*
X46383411Y-20955000D01*
X45720000Y-20955000D01*
X45596118Y-20967201D01*
X45593000Y-20968147D01*
X45593000Y-19812000D01*
X45580799Y-19688118D01*
X45544664Y-19568996D01*
X45485983Y-19459213D01*
X45407013Y-19362987D01*
X45310787Y-19284017D01*
X45201004Y-19225336D01*
X45081882Y-19189201D01*
X44958000Y-19177000D01*
X40386000Y-19177000D01*
X40262118Y-19189201D01*
X40142996Y-19225336D01*
X40033213Y-19284017D01*
X39936987Y-19362987D01*
X39858017Y-19459213D01*
X39799336Y-19568996D01*
X39763201Y-19688118D01*
X39751000Y-19812000D01*
X39751000Y-22352000D01*
X39763201Y-22475882D01*
X39799336Y-22595004D01*
X39858017Y-22704787D01*
X39936987Y-22801013D01*
X39954013Y-22814986D01*
X39766430Y-22871888D01*
X39328360Y-22871888D01*
X39174615Y-22887031D01*
X39026778Y-22931876D01*
X38890531Y-23004702D01*
X38771109Y-23102709D01*
X38673102Y-23222131D01*
X38600276Y-23358378D01*
X38558066Y-23497530D01*
X38191401Y-23130865D01*
X38159773Y-23092327D01*
X38005980Y-22966113D01*
X37830520Y-22872328D01*
X37640134Y-22814575D01*
X37491748Y-22799960D01*
X37442140Y-22795074D01*
X37392532Y-22799960D01*
X35153752Y-22799960D01*
X35005366Y-22814575D01*
X34816430Y-22871888D01*
X34378360Y-22871888D01*
X34224615Y-22887031D01*
X34076778Y-22931876D01*
X33940531Y-23004702D01*
X33821109Y-23102709D01*
X33723102Y-23222131D01*
X33650276Y-23358378D01*
X33605431Y-23506215D01*
X33590288Y-23659960D01*
X33590288Y-23959960D01*
X33601122Y-24069960D01*
X32737316Y-24069960D01*
X31457861Y-22790506D01*
X31426233Y-22751967D01*
X31272440Y-22625753D01*
X31096980Y-22531968D01*
X30906594Y-22474215D01*
X30758208Y-22459600D01*
X30708600Y-22454714D01*
X30658992Y-22459600D01*
X30108999Y-22459600D01*
X30035516Y-22420322D01*
X29878300Y-22372631D01*
X29714800Y-22356528D01*
X29314800Y-22356528D01*
X29151300Y-22372631D01*
X28994084Y-22420322D01*
X28849192Y-22497769D01*
X28722194Y-22601994D01*
X28617969Y-22728992D01*
X28540522Y-22873884D01*
X28492831Y-23031100D01*
X28476728Y-23194600D01*
X28476728Y-23744600D01*
X28492831Y-23908100D01*
X28540522Y-24065316D01*
X28617969Y-24210208D01*
X28722194Y-24337206D01*
X28849192Y-24441431D01*
X28994084Y-24518878D01*
X29151300Y-24566569D01*
X29314800Y-24582672D01*
X29714800Y-24582672D01*
X29878300Y-24566569D01*
X30035516Y-24518878D01*
X30108999Y-24479600D01*
X30290245Y-24479600D01*
X31191244Y-25380600D01*
X30082599Y-25380600D01*
X30009116Y-25341322D01*
X29851900Y-25293631D01*
X29688400Y-25277528D01*
X29288400Y-25277528D01*
X29124900Y-25293631D01*
X28967684Y-25341322D01*
X28822792Y-25418769D01*
X28695794Y-25522994D01*
X28663400Y-25562466D01*
X28631006Y-25522994D01*
X28504008Y-25418769D01*
X28359116Y-25341322D01*
X28201900Y-25293631D01*
X28098588Y-25283456D01*
X28060899Y-25272023D01*
X27894152Y-25255600D01*
X22225000Y-25255600D01*
X22225000Y-23424032D01*
X22211375Y-23293197D01*
X22173911Y-23174487D01*
X22114008Y-23065367D01*
X22033967Y-22970029D01*
X21936865Y-22892139D01*
X21826433Y-22834689D01*
X21706915Y-22799888D01*
X21582904Y-22789072D01*
X15232904Y-22860040D01*
X15116118Y-22872201D01*
X14996996Y-22908336D01*
X14887213Y-22967017D01*
X14790987Y-23045987D01*
X14712017Y-23142213D01*
X14653336Y-23251996D01*
X14617201Y-23371118D01*
X14605000Y-23495000D01*
X13360000Y-23495000D01*
X13360000Y-13360000D01*
X67920000Y-13360000D01*
X67920001Y-48227572D01*
G37*
%TD.AperFunction*%
D24*
X38169369Y-30966608D02*
X38273594Y-31093606D01*
X38400592Y-31197831D01*
X38545484Y-31275278D01*
X38702700Y-31322969D01*
X38866200Y-31339072D01*
X39266200Y-31339072D01*
X39429700Y-31322969D01*
X39505001Y-31300127D01*
X39505000Y-32574823D01*
X39459924Y-32659154D01*
X39395023Y-32873102D01*
X39373109Y-33095600D01*
X39378601Y-33151361D01*
X39378600Y-35514151D01*
X39395023Y-35680898D01*
X39436183Y-35816585D01*
X39442112Y-35876777D01*
X39491225Y-36038683D01*
X39570982Y-36187897D01*
X39678316Y-36318684D01*
X39809103Y-36426018D01*
X39958317Y-36505775D01*
X40120223Y-36554888D01*
X40265431Y-36569190D01*
X40291101Y-36576977D01*
X40513600Y-36598891D01*
X40736098Y-36576977D01*
X40761768Y-36569190D01*
X40906977Y-36554888D01*
X41068883Y-36505775D01*
X41218097Y-36426018D01*
X41348884Y-36318684D01*
X41456218Y-36187897D01*
X41535975Y-36038683D01*
X41585088Y-35876777D01*
X41591016Y-35816586D01*
X41632177Y-35680899D01*
X41648600Y-35514152D01*
X41648600Y-33489979D01*
X41693676Y-33405647D01*
X41758577Y-33191699D01*
X41775000Y-33024952D01*
X41775000Y-33024951D01*
X41780491Y-32969200D01*
X41775000Y-32913448D01*
X41775000Y-31361000D01*
X43164175Y-31361000D01*
X43113863Y-31422306D01*
X43054898Y-31532620D01*
X43018588Y-31652318D01*
X43013536Y-31703609D01*
X42940124Y-31840954D01*
X42875223Y-32054902D01*
X42853309Y-32277400D01*
X42858801Y-32333161D01*
X42858800Y-34911068D01*
X38632260Y-39137609D01*
X38614812Y-39151928D01*
X38545400Y-39151928D01*
X38420918Y-39164188D01*
X38301220Y-39200498D01*
X38190906Y-39259463D01*
X38124480Y-39313977D01*
X38124480Y-30882627D01*
X38169369Y-30966608D01*
%TA.AperFunction,Conductor*%
D25*
G36*
X38169369Y-30966608D02*
G01*
X38273594Y-31093606D01*
X38400592Y-31197831D01*
X38545484Y-31275278D01*
X38702700Y-31322969D01*
X38866200Y-31339072D01*
X39266200Y-31339072D01*
X39429700Y-31322969D01*
X39505001Y-31300127D01*
X39505000Y-32574823D01*
X39459924Y-32659154D01*
X39395023Y-32873102D01*
X39373109Y-33095600D01*
X39378601Y-33151361D01*
X39378600Y-35514151D01*
X39395023Y-35680898D01*
X39436183Y-35816585D01*
X39442112Y-35876777D01*
X39491225Y-36038683D01*
X39570982Y-36187897D01*
X39678316Y-36318684D01*
X39809103Y-36426018D01*
X39958317Y-36505775D01*
X40120223Y-36554888D01*
X40265431Y-36569190D01*
X40291101Y-36576977D01*
X40513600Y-36598891D01*
X40736098Y-36576977D01*
X40761768Y-36569190D01*
X40906977Y-36554888D01*
X41068883Y-36505775D01*
X41218097Y-36426018D01*
X41348884Y-36318684D01*
X41456218Y-36187897D01*
X41535975Y-36038683D01*
X41585088Y-35876777D01*
X41591016Y-35816586D01*
X41632177Y-35680899D01*
X41648600Y-35514152D01*
X41648600Y-33489979D01*
X41693676Y-33405647D01*
X41758577Y-33191699D01*
X41775000Y-33024952D01*
X41775000Y-33024951D01*
X41780491Y-32969200D01*
X41775000Y-32913448D01*
X41775000Y-31361000D01*
X43164175Y-31361000D01*
X43113863Y-31422306D01*
X43054898Y-31532620D01*
X43018588Y-31652318D01*
X43013536Y-31703609D01*
X42940124Y-31840954D01*
X42875223Y-32054902D01*
X42853309Y-32277400D01*
X42858801Y-32333161D01*
X42858800Y-34911068D01*
X38632260Y-39137609D01*
X38614812Y-39151928D01*
X38545400Y-39151928D01*
X38420918Y-39164188D01*
X38301220Y-39200498D01*
X38190906Y-39259463D01*
X38124480Y-39313977D01*
X38124480Y-30882627D01*
X38169369Y-30966608D01*
G37*
%TD.AperFunction*%
%TD*%
D24*
%TO.N,Net-(Q1-Pad1)*%
X51943000Y-25017956D02*
X51943000Y-25781000D01*
X50038000Y-25781000D01*
X50013224Y-25783440D01*
X49989399Y-25790667D01*
X49967443Y-25802403D01*
X49948197Y-25818197D01*
X49932403Y-25837443D01*
X49920667Y-25859399D01*
X49913440Y-25883224D01*
X49911000Y-25908000D01*
X49911000Y-26807845D01*
X49788845Y-26930000D01*
X48387000Y-26930000D01*
X48387000Y-26055872D01*
X48650500Y-26055872D01*
X48814000Y-26039769D01*
X48829721Y-26035000D01*
X49530000Y-26035000D01*
X49554776Y-26032560D01*
X49578601Y-26025333D01*
X49600557Y-26013597D01*
X49619803Y-25997803D01*
X49635597Y-25978557D01*
X49647333Y-25956601D01*
X49654560Y-25932776D01*
X49657000Y-25908000D01*
X49657000Y-25164655D01*
X50411646Y-24410010D01*
X51335055Y-24410010D01*
X51943000Y-25017956D01*
%TA.AperFunction,Conductor*%
D25*
G36*
X51943000Y-25017956D02*
G01*
X51943000Y-25781000D01*
X50038000Y-25781000D01*
X50013224Y-25783440D01*
X49989399Y-25790667D01*
X49967443Y-25802403D01*
X49948197Y-25818197D01*
X49932403Y-25837443D01*
X49920667Y-25859399D01*
X49913440Y-25883224D01*
X49911000Y-25908000D01*
X49911000Y-26807845D01*
X49788845Y-26930000D01*
X48387000Y-26930000D01*
X48387000Y-26055872D01*
X48650500Y-26055872D01*
X48814000Y-26039769D01*
X48829721Y-26035000D01*
X49530000Y-26035000D01*
X49554776Y-26032560D01*
X49578601Y-26025333D01*
X49600557Y-26013597D01*
X49619803Y-25997803D01*
X49635597Y-25978557D01*
X49647333Y-25956601D01*
X49654560Y-25932776D01*
X49657000Y-25908000D01*
X49657000Y-25164655D01*
X50411646Y-24410010D01*
X51335055Y-24410010D01*
X51943000Y-25017956D01*
G37*
%TD.AperFunction*%
%TD*%
D24*
%TO.N,Net-(Q1-Pad1)*%
X50419000Y-22390010D02*
X50042898Y-22390010D01*
X49993290Y-22385124D01*
X49795295Y-22404625D01*
X49604910Y-22462378D01*
X49573812Y-22479000D01*
X48768000Y-22479000D01*
X48743224Y-22481440D01*
X48719399Y-22488667D01*
X48697443Y-22500403D01*
X48678197Y-22516197D01*
X48668830Y-22526664D01*
X47690961Y-23749000D01*
X45847000Y-23749000D01*
X45847000Y-21717000D01*
X50419000Y-21717000D01*
X50419000Y-22390010D01*
%TA.AperFunction,Conductor*%
D25*
G36*
X50419000Y-22390010D02*
G01*
X50042898Y-22390010D01*
X49993290Y-22385124D01*
X49795295Y-22404625D01*
X49604910Y-22462378D01*
X49573812Y-22479000D01*
X48768000Y-22479000D01*
X48743224Y-22481440D01*
X48719399Y-22488667D01*
X48697443Y-22500403D01*
X48678197Y-22516197D01*
X48668830Y-22526664D01*
X47690961Y-23749000D01*
X45847000Y-23749000D01*
X45847000Y-21717000D01*
X50419000Y-21717000D01*
X50419000Y-22390010D01*
G37*
%TD.AperFunction*%
%TD*%
D24*
%TO.N,+15V*%
X44831000Y-22225000D02*
X40513000Y-22225000D01*
X40513000Y-19939000D01*
X44831000Y-19939000D01*
X44831000Y-22225000D01*
%TA.AperFunction,Conductor*%
D25*
G36*
X44831000Y-22225000D02*
G01*
X40513000Y-22225000D01*
X40513000Y-19939000D01*
X44831000Y-19939000D01*
X44831000Y-22225000D01*
G37*
%TD.AperFunction*%
%TD*%
D24*
%TO.N,+15V*%
X57023000Y-23823394D02*
X53683803Y-20484197D01*
X53664557Y-20468403D01*
X53642601Y-20456667D01*
X53618776Y-20449440D01*
X53594000Y-20447000D01*
X52197000Y-20447000D01*
X52197000Y-16891000D01*
X57023000Y-16891000D01*
X57023000Y-23823394D01*
%TA.AperFunction,Conductor*%
D25*
G36*
X57023000Y-23823394D02*
G01*
X53683803Y-20484197D01*
X53664557Y-20468403D01*
X53642601Y-20456667D01*
X53618776Y-20449440D01*
X53594000Y-20447000D01*
X52197000Y-20447000D01*
X52197000Y-16891000D01*
X57023000Y-16891000D01*
X57023000Y-23823394D01*
G37*
%TD.AperFunction*%
%TD*%
M02*
